<?xml version="1.0" standalone="no"?>
<!DOCTYPE svg PUBLIC "-//W3C//DTD SVG 20010904//EN"
 "http://www.w3.org/TR/2001/REC-SVG-20010904/DTD/svg10.dtd">
<svg version="1.0" xmlns="http://www.w3.org/2000/svg"
 width="295.000000pt" height="202.000000pt" viewBox="0 0 295.000000 202.000000"
 preserveAspectRatio="xMidYMid meet">

<g transform="translate(0.000000,202.000000) scale(0.100000,-0.100000)"
fill="#000000" stroke="none">
<path d="M1380 1991 c0 -29 -1 -30 -47 -29 -53 1 -176 -11 -182 -18 -2 -2 -11
1 -18 8 -11 9 -16 9 -22 -1 -5 -8 -36 -12 -97 -11 -49 0 -96 0 -104 0 -8 -1
-73 -3 -145 -5 -136 -4 -185 -14 -185 -40 0 -8 -5 -15 -10 -15 -6 0 -8 10 -5
23 l6 22 -182 0 c-142 0 -183 -3 -187 -13 -3 -10 -8 -10 -22 3 -13 11 -23 13
-41 6 -23 -9 -22 -10 21 -29 25 -10 79 -35 120 -55 390 -183 467 -217 473
-211 3 3 22 -6 42 -21 21 -14 48 -25 60 -25 12 0 28 -7 35 -15 7 -8 18 -15 25
-15 7 0 15 7 19 15 7 20 35 19 43 -1 6 -15 23 -16 160 -10 85 3 162 10 171 14
9 4 76 7 147 7 109 0 130 -2 130 -15 0 -8 -6 -14 -13 -12 -7 1 -21 -2 -32 -8
-14 -7 -23 -6 -35 6 -14 15 -18 15 -33 1 -15 -13 -19 -13 -31 0 -8 9 -16 11
-20 5 -3 -6 -26 -9 -51 -8 -25 2 -48 -2 -52 -7 -4 -7 -11 -7 -21 2 -10 8 -17
8 -21 2 -4 -6 -19 -10 -34 -11 -15 0 -54 -2 -87 -4 -33 -1 -64 -1 -70 2 -17
10 -65 12 -65 3 0 -5 -10 -7 -22 -4 -18 4 -16 0 9 -16 43 -27 171 -81 193 -81
11 0 22 -5 25 -11 6 -9 82 -46 171 -84 20 -8 47 -15 59 -15 19 0 35 -17 35
-37 0 -8 -74 7 -85 18 -5 5 -17 9 -27 9 -10 0 -18 4 -18 9 0 13 -67 34 -80 26
-6 -4 -8 -15 -5 -26 4 -10 2 -19 -3 -19 -16 0 -23 31 -11 46 8 10 -6 20 -67
48 -86 40 -94 42 -94 21 0 -17 -9 -19 -30 -5 -10 6 -11 10 -2 10 27 0 9 21
-40 45 -60 29 -72 31 -64 10 3 -8 3 -15 0 -15 -2 0 -9 11 -14 25 -12 32 -33
32 -50 0 -9 -18 -16 -22 -21 -13 -4 7 -6 15 -3 19 7 12 -17 23 -50 23 -26 0
-31 -5 -32 -25 0 -13 -4 -35 -9 -49 -4 -14 -8 -38 -7 -54 0 -16 -4 -38 -9 -49
-8 -14 -7 -23 5 -36 14 -16 14 -19 -2 -35 -11 -11 -12 -16 -4 -14 16 4 33 -34
23 -50 -5 -9 -13 -7 -27 6 -11 11 -29 18 -40 16 -34 -5 -47 9 -33 39 7 15 19
27 28 27 11 0 10 3 -5 14 -21 16 -18 24 12 29 10 1 21 6 23 11 6 12 -21 46
-36 46 -7 0 -13 4 -13 10 0 5 5 9 12 7 7 -1 12 3 13 8 0 6 6 19 12 30 17 30
20 68 6 72 -7 3 -13 -1 -13 -9 0 -10 -2 -10 -9 1 -6 9 -18 11 -34 7 -22 -5
-26 -13 -34 -68 -5 -39 -13 -62 -21 -61 -6 2 -9 -3 -6 -11 6 -15 -40 -88 -50
-79 -3 4 -6 -1 -6 -10 0 -10 -7 -17 -15 -17 -7 0 -19 -8 -24 -17 -9 -16 -10
-16 -11 4 0 27 -16 38 -24 18 -3 -8 -11 -15 -17 -15 -8 0 -8 4 1 15 17 20 11
24 -36 31 -34 4 -70 22 -51 25 4 1 12 3 17 4 6 1 13 3 16 4 4 0 1 8 -6 16 -10
12 -7 14 19 12 33 -2 41 -14 16 -23 -24 -10 -18 -20 19 -31 38 -12 46 -9 46
19 0 10 6 18 14 18 8 0 16 4 18 9 2 5 14 11 28 13 34 4 51 27 37 49 -6 10 -14
16 -18 13 -4 -2 -10 0 -13 5 -3 5 8 11 24 15 28 5 30 9 30 48 0 37 -4 45 -30
60 -22 12 -30 25 -30 44 0 20 3 24 13 16 6 -5 23 -13 37 -17 24 -8 50 -28 50
-40 0 -3 -4 -3 -10 0 -5 3 -10 2 -10 -3 0 -14 19 -19 63 -17 25 1 37 -3 37
-12 0 -7 5 -13 10 -13 6 0 8 11 4 28 -9 36 -13 42 -29 42 -12 0 -164 65 -343
146 -29 13 -80 36 -114 50 -35 14 -92 40 -128 57 -36 17 -79 31 -97 32 -17 0
-35 3 -39 8 -21 21 -25 -7 -22 -170 l3 -178 38 -3 c20 -2 37 -9 37 -15 0 -9 2
-9 8 0 9 15 75 23 110 14 23 -6 24 -8 8 -23 -9 -9 -16 -22 -16 -28 0 -6 -6
-10 -12 -7 -7 2 -12 10 -11 16 4 15 -14 14 -20 -1 -3 -10 -8 -10 -18 -2 -18
14 -109 16 -109 3 0 -6 -4 -7 -10 -4 -6 4 -10 -9 -9 -32 0 -30 2 -34 9 -18 8
19 9 19 9 1 1 -13 6 -17 21 -13 13 3 20 0 20 -10 0 -10 -6 -13 -15 -9 -10 3
-18 -1 -22 -11 -6 -15 -7 -14 -14 3 -5 12 -7 3 -7 -28 1 -27 5 -48 11 -48 5 0
6 -8 2 -17 -3 -10 -9 -62 -11 -117 -4 -88 -3 -98 11 -92 9 3 25 6 36 6 12 0
19 7 19 19 0 14 6 19 25 17 21 -3 23 -1 14 17 -9 15 -8 18 3 15 8 -3 13 -19
12 -40 -1 -31 2 -35 19 -30 19 5 20 2 14 -42 -8 -58 6 -67 71 -44 37 14 44 14
49 2 7 -19 21 -18 26 3 4 14 5 12 6 -4 1 -25 16 -31 25 -10 5 10 7 10 12 0 3
-7 12 -13 20 -13 8 0 14 -4 14 -9 0 -5 -9 -7 -20 -4 -15 4 -20 0 -20 -16 0
-12 -4 -20 -9 -17 -4 3 -17 -1 -27 -9 -18 -14 -18 -15 6 -22 24 -7 24 -7 -10
-14 -19 -4 -42 -3 -52 2 -27 15 -70 10 -84 -8 -12 -16 -13 -16 -14 -2 0 10
-12 19 -31 23 -18 3 -28 10 -24 16 5 8 11 8 20 0 9 -8 15 -8 20 0 8 13 -4 99
-16 105 -8 5 -26 -20 -28 -40 -1 -5 -5 -10 -10 -10 -5 0 -13 -3 -17 -7 -4 -5
-3 -8 2 -8 5 0 9 -11 9 -25 -2 -31 -19 -52 -29 -36 -4 6 -16 11 -27 11 -18 0
-19 -8 -19 -140 0 -87 4 -140 10 -140 6 0 10 -9 10 -19 0 -27 12 -32 33 -16
13 9 18 23 15 46 -2 17 2 34 7 35 6 2 11 -13 12 -33 1 -20 8 -40 15 -44 16
-10 7 -19 -24 -23 -34 -3 -48 -14 -48 -37 0 -11 -4 -18 -10 -14 -5 3 -7 11 -4
18 3 8 1 24 -4 38 -8 20 -9 14 -10 -29 -1 -36 2 -51 9 -46 6 4 15 0 20 -7 14
-22 11 -29 -11 -29 -18 0 -20 -7 -20 -71 l0 -71 172 4 171 3 17 -66 c26 -101
39 -116 35 -41 -5 86 -14 122 -31 122 -22 0 -17 31 6 37 11 3 20 13 21 22 0
10 2 11 6 4 2 -7 12 -13 20 -13 12 0 13 3 5 13 -9 10 -6 17 8 30 17 14 18 20
8 42 -10 22 -8 29 11 49 l23 25 -21 30 c-15 21 -21 40 -17 61 4 30 4 30 -45
30 -29 0 -48 -4 -44 -9 3 -5 1 -12 -4 -15 -12 -8 -23 31 -21 79 2 52 19 118
33 127 8 5 7 11 -1 21 -14 16 -6 28 13 21 7 -3 16 0 20 5 3 6 10 9 14 7 12 -8
102 19 99 29 -2 6 -9 9 -16 9 -6 -1 -12 2 -12 7 0 5 9 9 20 9 17 0 20 7 21 48
0 26 2 58 3 70 2 14 -4 26 -13 30 -12 5 -15 15 -10 37 5 24 7 27 13 13 8 -18
27 -25 25 -10 -3 19 3 20 21 5 11 -10 20 -24 20 -31 0 -12 -3 -12 -15 -2 -9 7
-17 11 -19 9 -3 -2 -6 -33 -8 -69 -3 -63 -2 -65 22 -66 14 -1 28 3 32 10 5 7
8 5 8 -6 0 -12 -11 -19 -35 -24 -31 -6 -35 -10 -35 -38 0 -57 43 -78 54 -26 4
24 11 30 30 30 19 0 26 -7 31 -29 5 -24 10 -27 33 -23 15 3 54 6 87 7 77 3 84
5 60 15 -17 7 -17 9 -2 9 22 1 24 51 2 51 -8 0 -15 5 -15 11 0 5 -4 7 -10 4
-5 -3 -10 -1 -10 4 0 6 4 11 9 11 16 0 20 41 5 47 -8 3 -14 12 -14 20 0 8 5
11 10 8 6 -3 10 -1 10 4 0 6 -6 11 -14 11 -9 0 -12 7 -9 20 4 14 0 20 -11 20
-9 0 -16 5 -16 10 0 6 4 10 8 10 15 0 62 -25 62 -33 0 -5 4 -6 8 -3 8 5 10 -1
14 -41 0 -10 6 -21 12 -25 8 -5 7 -8 -1 -8 -15 0 -18 -27 -4 -32 15 -5 18 -43
4 -41 -8 2 -13 -7 -13 -22 0 -14 6 -25 13 -25 8 0 7 -4 -3 -10 -10 -6 -11 -10
-2 -10 6 0 12 -7 12 -15 0 -8 3 -15 8 -15 4 0 7 -40 7 -88 0 -62 4 -94 14
-106 12 -14 12 -17 1 -14 -8 2 -15 -6 -17 -17 -8 -45 -27 -94 -34 -89 -15 9
-10 46 6 58 13 9 14 17 4 43 -12 36 -15 36 -148 34 -48 -1 -68 -6 -77 -19 -18
-23 -18 -2 0 23 15 23 29 165 16 165 -5 0 -7 -7 -3 -15 3 -9 -3 -25 -12 -35
-20 -22 -35 -26 -35 -10 0 6 6 10 14 10 22 0 7 47 -17 54 -42 11 -46 7 -46
-41 1 -27 -4 -77 -11 -112 -6 -35 -10 -80 -9 -100 1 -20 -5 -50 -14 -68 -9
-18 -17 -40 -17 -50 0 -10 -9 -42 -20 -71 -24 -63 -25 -82 -4 -82 11 0 14 -5
10 -16 -13 -34 -18 -65 -12 -79 10 -27 36 -4 50 44 13 45 14 46 59 49 50 3 48
5 51 -55 2 -40 15 -36 38 13 16 33 30 50 45 52 25 3 53 -31 53 -65 0 -16 6
-23 20 -23 15 0 22 10 31 44 l11 44 266 6 c147 3 301 8 342 11 41 2 96 4 122
5 41 0 47 3 50 22 3 19 7 15 27 -25 18 -38 21 -53 13 -71 -9 -20 -16 -22 -91
-20 -44 2 -83 -2 -86 -7 -7 -10 89 -14 253 -10 38 1 42 3 42 27 0 39 21 112
34 117 7 3 11 -15 11 -57 0 -48 3 -61 15 -61 8 0 14 5 13 11 -1 7 -4 51 -7 99
-3 69 -8 90 -21 97 -11 7 -16 21 -14 41 3 55 0 79 -12 71 -6 -3 -9 -18 -6 -33
5 -24 2 -27 -23 -29 -16 -1 -31 2 -35 8 -3 5 -16 10 -27 10 -18 0 -20 4 -15
35 7 44 -9 56 -17 12 -9 -44 -9 -46 -1 -99 7 -44 6 -48 -12 -48 -16 0 -23 10
-32 43 -15 55 -38 87 -50 68 -10 -15 -41 -8 -41 10 0 6 8 13 18 16 14 3 18 13
16 39 -2 19 -6 39 -9 44 -3 6 -1 10 4 10 6 0 11 -9 11 -19 0 -14 5 -18 19 -14
20 5 23 -10 7 -35 -11 -18 14 -46 28 -32 8 8 7 13 -1 18 -8 5 -10 17 -5 36 6
23 17 32 49 41 l40 12 17 -52 c9 -28 16 -59 16 -68 0 -10 6 -17 14 -17 9 0 16
17 20 45 5 29 12 45 22 45 28 0 13 26 -48 80 -105 95 -118 110 -118 139 0 15
-5 32 -11 38 -10 10 -11 33 -6 141 1 26 -2 26 40 6 l34 -16 6 -96 c4 -76 9
-99 23 -109 28 -20 33 -16 28 24 -4 35 -4 36 7 13 6 -14 15 -35 20 -48 5 -12
20 -27 34 -32 14 -5 25 -13 24 -17 -5 -28 3 -35 31 -31 44 7 45 -5 6 -42 -42
-40 -49 -70 -25 -107 13 -19 15 -29 7 -34 -7 -4 -8 -14 -3 -25 5 -11 9 -68 10
-129 1 -89 4 -110 16 -110 9 0 15 13 17 37 l3 36 62 6 c34 3 103 8 153 12 l92
6 11 -51 c6 -29 11 -61 11 -71 0 -11 6 -20 14 -20 11 0 13 20 13 94 -1 80 2
102 23 145 19 42 28 51 49 51 14 0 32 -4 40 -9 11 -7 10 -10 -3 -18 -16 -9
-34 -83 -20 -83 3 0 24 19 45 42 21 23 41 40 44 37 8 -9 -7 -69 -16 -63 -5 3
-6 -1 -4 -9 6 -13 -56 -87 -72 -87 -8 0 -43 72 -43 90 0 6 -7 10 -15 10 -21 0
-19 -46 3 -62 9 -7 24 -26 32 -43 8 -16 20 -38 28 -47 8 -9 11 -21 8 -26 -3
-5 7 -12 22 -15 20 -4 35 -20 55 -56 16 -28 29 -51 30 -51 2 0 4 11 5 25 2 29
-21 91 -44 116 -23 25 -5 50 55 79 44 22 50 29 51 56 0 35 26 74 52 77 9 2 23
9 32 16 19 16 31 9 49 -29 11 -21 12 -30 3 -34 -6 -2 -3 -5 8 -5 16 -1 17 -3
5 -18 -13 -15 -11 -16 24 -9 32 6 44 3 77 -22 l40 -29 -24 -11 c-13 -6 -41
-14 -63 -17 -64 -12 -134 -37 -151 -55 -19 -19 -72 -32 -72 -18 0 5 5 18 10
29 6 10 8 19 6 19 -3 0 -10 -10 -17 -21 -8 -17 -8 -30 4 -58 8 -20 23 -65 34
-101 13 -43 25 -66 36 -68 12 -3 17 3 17 20 0 13 5 30 10 38 8 12 13 11 39 -8
17 -12 35 -22 40 -22 5 0 17 -10 25 -22 9 -12 19 -19 22 -15 4 4 -2 17 -13 30
-29 31 -48 69 -44 90 2 14 -2 17 -23 11 -16 -4 -26 -2 -26 5 0 6 -6 11 -14 11
-8 0 -16 7 -20 15 -4 11 2 15 24 15 17 0 30 4 30 9 0 6 8 9 19 8 52 -4 220 76
238 113 7 14 17 26 23 26 5 1 18 2 28 3 14 1 15 3 2 11 -12 7 -12 12 -3 21 10
10 9 16 -3 30 -9 10 -22 15 -30 12 -17 -6 -54 24 -54 44 0 21 14 15 25 -9 7
-17 18 -23 43 -23 l32 0 0 183 c0 100 -3 182 -7 182 -3 0 -15 -7 -25 -17 -10
-9 -21 -13 -26 -8 -4 4 -1 10 6 12 17 7 15 20 -8 43 -22 22 -74 28 -67 8 2 -7
11 -12 21 -10 28 5 18 -27 -14 -43 -27 -14 -30 -14 -30 0 0 8 -7 15 -15 15 -8
0 -15 5 -15 10 0 6 6 10 13 10 7 0 19 16 27 35 8 19 20 35 27 35 16 0 16 0 -3
39 -20 40 -13 51 10 16 9 -14 13 -25 10 -25 -4 0 5 -11 20 -25 14 -13 26 -33
26 -45 0 -11 3 -20 8 -21 4 0 15 -2 25 -4 14 -3 17 4 17 36 0 28 -4 37 -14 33
-7 -3 -16 2 -20 11 -4 12 0 19 14 22 16 4 20 14 20 44 0 40 -11 48 -40 29 -9
-6 -17 -5 -22 3 -15 24 -7 36 28 43 25 5 32 10 25 17 -14 14 -15 80 -1 72 6
-4 10 18 10 59 0 36 -4 66 -9 66 -5 0 -11 -5 -13 -10 -2 -6 -9 -1 -16 10 -10
17 -9 20 12 26 l25 6 0 156 1 155 -24 -32 c-14 -19 -26 -27 -28 -20 -2 7 -10
9 -17 5 -7 -5 -10 -15 -6 -23 4 -13 3 -14 -10 -3 -8 7 -31 15 -50 17 -27 3
-35 0 -35 -12 0 -12 -6 -15 -22 -9 -13 3 -24 11 -26 15 -2 5 -21 9 -42 9 -32
0 -39 -4 -43 -22 l-4 -23 -8 22 c-5 16 -13 21 -29 19 -11 -3 -29 -5 -38 -5
-10 -1 -18 -9 -18 -18 0 -15 -2 -15 -9 -4 -5 8 -19 15 -31 16 -16 1 -20 -3
-17 -16 3 -12 0 -16 -10 -12 -11 4 -14 2 -11 -8 3 -8 11 -13 17 -12 6 2 11 -3
11 -11 0 -8 3 -21 6 -30 4 -10 1 -16 -9 -16 -13 0 -15 -16 -13 -107 2 -60 4
-112 6 -118 5 -20 0 -68 -7 -61 -10 10 -14 36 -13 79 l1 38 -38 -7 -38 -6 24
23 c16 15 26 19 29 11 2 -7 8 -12 13 -12 12 0 12 97 0 105 -6 3 -8 40 -5 85
l5 80 -28 -5 c-15 -3 -50 -7 -78 -9 -27 -2 -58 -7 -67 -11 -12 -5 -18 -3 -18
6 -1 8 -6 4 -14 -9 -11 -21 -14 -22 -25 -8 -10 12 -26 14 -74 9 -82 -8 -88 -8
-117 0 -14 3 -32 2 -40 -3 -13 -9 -11 -13 10 -30 24 -19 24 -19 3 -13 -13 3
-23 9 -23 13 0 5 -14 11 -31 15 -21 5 -29 11 -25 22 4 11 1 13 -15 8 -11 -4
-27 -1 -35 6 -12 10 -16 9 -20 -7 -5 -19 -64 -61 -64 -45 0 4 11 20 25 35 13
14 25 29 25 31 0 3 0 9 0 13 0 18 67 45 94 38 22 -5 25 -10 20 -32 -6 -25 -6
-25 55 -23 37 1 66 8 72 16 9 10 15 10 25 2 9 -7 27 -9 51 -4 21 5 53 7 72 6
18 -2 60 0 92 4 50 6 59 10 59 27 0 10 4 17 10 13 5 -3 6 -13 3 -21 -4 -12 0
-15 23 -12 23 2 30 9 35 33 6 29 11 27 13 -5 1 -11 13 -15 41 -15 22 -1 44 1
49 4 6 2 31 3 58 2 55 -3 70 3 61 25 -5 12 -7 13 -14 3 -4 -8 -11 -10 -15 -7
-3 4 3 22 14 39 l20 33 7 -37 c6 -31 10 -35 21 -26 11 9 14 8 14 -1 0 -7 7
-10 15 -6 8 3 15 1 15 -4 0 -7 68 -3 78 5 2 2 0 14 -3 28 -5 18 -12 24 -22 20
-13 -5 -13 -3 -2 15 13 21 14 21 21 2 4 -11 14 -20 23 -20 18 0 20 -16 3 -23
-9 -3 -7 -7 6 -12 11 -5 21 -3 26 5 5 8 9 9 14 1 22 -35 36 0 42 100 3 63 1
78 -11 83 -13 5 -15 0 -9 -29 3 -19 2 -35 -2 -35 -9 0 -14 26 -17 85 -1 17 -8
34 -14 38 -20 13 -15 30 7 24 10 -3 21 0 24 7 3 7 8 6 16 -4 10 -12 11 -10 6
10 -3 14 -6 28 -6 33 0 15 -39 6 -43 -10 -4 -17 -5 -17 -6 0 -1 13 -10 17 -41
17 -37 0 -40 -2 -40 -29 0 -23 -5 -30 -29 -34 l-29 -6 3 -73 c1 -40 0 -62 -2
-48 -3 14 -9 30 -15 37 -16 20 -21 103 -6 103 9 0 8 4 -2 11 -11 8 -12 12 -2
16 6 2 12 9 12 14 0 14 -107 11 -113 -3 -4 -10 -7 -10 -15 0 -5 8 -29 12 -69
11 -59 -2 -60 -2 -55 -28 l5 -26 -20 24 c-15 19 -32 25 -76 29 -34 3 -62 0
-71 -7 -7 -6 -61 -14 -119 -18 -94 -5 -107 -4 -113 10 -4 12 -18 17 -44 17
-30 0 -39 -4 -43 -21 -5 -17 -12 -20 -53 -17 -56 4 -71 25 -22 31 18 2 -29 5
-105 5 -111 2 -139 -1 -143 -12 -3 -8 -19 -19 -35 -25 -19 -7 -29 -17 -29 -30
0 -22 -14 -28 -25 -11 -7 11 -34 6 -73 -12 -18 -9 -26 -8 -39 4 -29 30 -9 45
66 52 52 5 71 11 71 22 0 11 -22 14 -120 14 l-120 0 0 -29z m1280 -17 c0 -8
-4 -12 -10 -9 -5 3 -10 13 -10 21 0 8 5 12 10 9 6 -3 10 -13 10 -21z m199 -8
c26 -41 26 -56 3 -56 -21 0 -55 37 -42 45 6 4 10 15 10 26 0 27 5 24 29 -15z
m-153 -34 c-10 -10 -29 15 -21 28 6 9 10 8 17 -4 6 -10 7 -20 4 -24z m-669 -6
c-4 -9 -13 -13 -21 -10 -12 5 -13 10 -5 26 13 24 35 9 26 -16z m213 14 c0 -5
-2 -10 -4 -10 -3 0 -8 5 -11 10 -3 6 -1 10 4 10 6 0 11 -4 11 -10z m430 -26
c0 -8 -4 -14 -9 -14 -6 0 -9 9 -8 19 1 22 17 18 17 -5z m-685 -5 c10 -15 -1
-23 -20 -15 -9 3 -13 10 -10 16 8 13 22 13 30 -1z m841 -37 c-9 -8 -26 10 -26
26 1 15 2 15 15 -2 8 -11 13 -21 11 -24z m-1596 -5 c-1 -21 -1 -21 -15 -3 -8
10 -12 23 -9 28 9 14 24 -2 24 -25z m595 23 c3 -5 -3 -10 -14 -10 -12 0 -21 5
-21 10 0 6 6 10 14 10 8 0 18 -4 21 -10z m389 -16 c3 -8 -1 -15 -9 -15 -24 -2
-29 -4 -42 -12 -16 -10 -16 -5 -2 26 12 26 43 27 53 1z m388 14 c19 2 28 -2
28 -13 0 -18 -17 -20 -22 -3 -6 18 -28 -1 -28 -25 -1 -20 -2 -21 -14 -5 -7 10
-15 15 -18 13 -3 -3 -13 5 -24 17 -10 12 -14 19 -9 15 6 -3 17 -2 25 3 8 5 19
6 24 2 6 -3 23 -5 38 -4z m182 -5 c4 -9 1 -21 -5 -27 -9 -8 -10 -7 -6 5 3 9 0
22 -6 28 -8 8 -8 11 0 11 6 0 14 -8 17 -17z m94 -28 c0 -19 -4 -33 -8 -30 -4
3 -8 21 -8 40 0 19 4 33 8 30 4 -3 8 -21 8 -40z m-593 8 c18 -14 18 -15 2 -9
-10 3 -23 6 -28 6 -5 0 -9 5 -9 10 0 14 12 12 35 -7z m380 7 c3 -5 1 -10 -4
-10 -6 0 -11 5 -11 10 0 6 2 10 4 10 3 0 8 -4 11 -10z m-585 -14 c0 -8 -4 -17
-9 -21 -6 -3 -9 4 -8 15 1 23 17 28 17 6z m754 -12 c8 -21 8 -24 -3 -24 -5 0
-11 9 -14 20 -6 24 8 27 17 4z m-2766 -20 c10 -10 7 -12 -11 -10 -30 3 -49 15
-42 26 6 11 34 2 53 -16z m357 16 c3 -5 1 -10 -4 -10 -6 0 -11 5 -11 10 0 6 2
10 4 10 3 0 8 -4 11 -10z m1925 0 c0 -5 -2 -10 -4 -10 -3 0 -8 5 -11 10 -3 6
-1 10 4 10 6 0 11 -4 11 -10z m132 -10 c-1 -7 2 -18 8 -25 8 -10 7 -14 -2 -18
-11 -4 -11 -7 0 -18 11 -12 15 -11 23 4 6 9 15 17 20 17 6 0 7 -4 4 -10 -3 -6
1 -7 9 -4 9 3 13 11 9 17 -3 6 -1 7 6 3 17 -11 -5 -36 -30 -36 -11 0 -19 -4
-19 -9 0 -9 -140 -22 -153 -14 -4 2 -5 9 -1 14 4 6 11 6 19 -1 16 -14 50 19
71 68 13 31 43 41 36 12z m238 -24 c-14 -14 -32 3 -17 18 9 10 14 11 19 2 4
-6 3 -15 -2 -20z m-1070 14 c0 -5 -4 -10 -10 -10 -5 0 -10 5 -10 10 0 6 5 10
10 10 6 0 10 -4 10 -10z m657 -12 c-3 -8 -6 -5 -6 6 -1 11 2 17 5 13 3 -3 4
-12 1 -19z m-2137 -3 c0 -8 -7 -15 -15 -15 -9 0 -12 6 -9 15 4 8 10 15 15 15
5 0 9 -7 9 -15z m1403 2 c4 -10 -2 -13 -19 -9 -13 2 -21 8 -18 13 8 14 31 11
37 -4z m-663 -1 c0 -3 -4 -8 -10 -11 -5 -3 -10 -1 -10 4 0 6 5 11 10 11 6 0
10 -2 10 -4z m1467 -33 c-3 -3 -11 -2 -17 2 -8 5 -7 11 2 22 12 15 13 14 16
-1 2 -10 1 -20 -1 -23z m-407 18 c0 -12 -20 -25 -27 -18 -7 7 6 27 18 27 5 0
9 -4 9 -9z m156 -11 c8 0 14 -7 14 -15 0 -8 -6 -15 -14 -15 -14 0 -27 22 -25
43 0 8 2 8 6 0 2 -7 11 -13 19 -13z m510 -6 c3 -17 -1 -20 -26 -16 -33 5 -32
4 -24 27 9 23 46 15 50 -11z m44 17 c0 -12 -20 -25 -27 -18 -7 7 6 27 18 27 5
0 9 -4 9 -9z m90 -34 c0 -5 -4 -5 -10 -2 -5 3 -10 14 -10 23 0 15 2 15 10 2 5
-8 10 -19 10 -23z m90 -1 c-14 -14 -24 0 -16 21 6 15 8 15 16 3 6 -9 5 -19 0
-24z m-1060 14 c0 -5 -2 -10 -4 -10 -3 0 -8 5 -11 10 -3 6 -1 10 4 10 6 0 11
-4 11 -10z m1114 -5 c3 -8 1 -15 -4 -15 -6 0 -10 7 -10 15 0 8 2 15 4 15 2 0
6 -7 10 -15z m-1063 -35 c-9 -5 -22 -5 -34 1 -18 10 -18 11 0 24 15 12 20 12
33 -1 13 -13 13 -16 1 -24z m875 11 c-12 -19 -24 -12 -19 10 4 13 9 17 15 11
6 -6 7 -15 4 -21z m-1103 -1 c-3 -13 -13 -20 -27 -19 -18 1 -18 2 -3 6 11 3
16 11 13 19 -3 8 1 14 8 14 9 0 12 -7 9 -20z m472 -1 c10 -15 -1 -23 -20 -15
-9 3 -13 10 -10 16 8 13 22 13 30 -1z m-65 -8 c0 -11 -26 -22 -34 -14 -12 12
-5 23 14 23 11 0 20 -4 20 -9z m295 -1 c3 -5 1 -10 -4 -10 -6 0 -11 5 -11 10
0 6 2 10 4 10 3 0 8 -4 11 -10z m-30 -9 c3 -5 1 -12 -4 -15 -12 -8 -41 3 -41
15 0 12 37 12 45 0z m-546 -51 c-1 -13 -1 -13 -6 0 -3 8 -10 18 -16 21 -5 4
-6 13 -2 20 6 9 10 8 16 -7 4 -10 8 -26 8 -34z m-289 25 c0 -8 5 -14 11 -12 6
1 14 -4 17 -12 3 -10 -4 -9 -27 5 -33 20 -40 34 -16 34 8 0 15 -7 15 -15z
m1070 -6 c0 -5 -4 -9 -10 -9 -5 0 -10 7 -10 16 0 8 5 12 10 9 6 -3 10 -10 10
-16z m80 11 c0 -5 -5 -10 -11 -10 -5 0 -7 5 -4 10 3 6 8 10 11 10 2 0 4 -4 4
-10z m-2420 -4 c0 -2 -7 -6 -15 -10 -8 -3 -15 -1 -15 4 0 6 7 10 15 10 8 0 15
-2 15 -4z m1076 -33 c4 -37 -22 -64 -52 -57 -18 5 -24 2 -24 -11 0 -12 -4 -15
-12 -8 -18 13 -148 16 -148 3 0 -5 -5 -10 -11 -10 -5 0 -7 5 -3 11 5 9 -8 10
-45 7 -48 -5 -51 -4 -51 17 0 40 23 48 128 46 131 -3 202 7 202 27 0 25 13 5
16 -25z m754 27 c0 -5 -2 -10 -4 -10 -3 0 -8 5 -11 10 -3 6 -1 10 4 10 6 0 11
-4 11 -10z m227 -32 c-3 -8 -6 -5 -6 6 -1 11 2 17 5 13 3 -3 4 -12 1 -19z
m-1997 2 c0 -5 -4 -10 -9 -10 -6 0 -13 5 -16 10 -3 6 1 10 9 10 9 0 16 -4 16
-10z m97 -12 c-3 -8 -6 -5 -6 6 -1 11 2 17 5 13 3 -3 4 -12 1 -19z m143 -30
c0 -39 -6 -34 -13 10 -3 18 -1 30 4 26 5 -3 9 -19 9 -36z m1060 32 c0 -5 -4
-10 -10 -10 -5 0 -10 5 -10 10 0 6 5 10 10 10 6 0 10 -4 10 -10z m-1030 -20
c0 -22 15 -27 24 -7 4 8 5 7 5 -3 -1 -8 -1 -30 0 -47 1 -30 4 -33 31 -33 17 0
30 -2 30 -4 0 -2 3 -12 6 -20 4 -12 2 -15 -9 -10 -8 3 -18 0 -22 -5 -3 -6 -10
-9 -15 -6 -5 3 -14 -14 -20 -37 -6 -24 -14 -50 -17 -58 -4 -8 -7 -18 -7 -22
-3 -23 -16 -16 -16 10 0 17 -5 34 -11 38 -8 5 -10 -1 -7 -20 4 -21 2 -26 -9
-22 -8 3 -19 6 -24 6 -5 0 -9 5 -9 11 0 6 7 9 15 5 11 -4 15 2 16 22 1 15 2
40 3 56 0 16 -5 31 -11 33 -8 3 -13 -5 -14 -19 l0 -23 -11 25 c-9 21 -12 22
-15 8 -7 -27 -23 -22 -23 7 0 17 5 24 18 23 9 -1 30 0 46 0 28 2 29 3 10 17
-10 8 -32 15 -49 15 -24 1 -26 3 -11 9 23 9 66 2 66 -10 0 -5 5 -9 11 -9 7 0
10 17 7 45 -2 25 0 45 4 45 5 0 8 -9 8 -20z m1277 4 c-3 -3 -12 -4 -19 -1 -8
3 -5 6 6 6 11 1 17 -2 13 -5z m-1547 -14 c0 -5 -2 -10 -4 -10 -3 0 -8 5 -11
10 -3 6 -1 10 4 10 6 0 11 -4 11 -10z m69 -14 c7 -8 8 -17 3 -20 -6 -3 -12 3
-15 14 -6 24 -4 25 12 6z m36 -6 c3 -5 1 -10 -4 -10 -6 0 -11 5 -11 10 0 6 2
10 4 10 3 0 8 -4 11 -10z m2335 -10 c0 -5 -5 -10 -11 -10 -5 0 -7 5 -4 10 3 6
8 10 11 10 2 0 4 -4 4 -10z m237 -16 c-9 -9 -28 6 -21 18 4 6 10 6 17 -1 6 -6
8 -13 4 -17z m-2722 6 c4 -6 -5 -10 -19 -10 -14 0 -26 5 -26 10 0 6 9 10 19
10 11 0 23 -4 26 -10z m-120 -10 c-3 -5 -13 -10 -21 -10 -8 0 -12 5 -9 10 3 6
13 10 21 10 8 0 12 -4 9 -10z m233 -33 c14 -3 39 -3 56 -1 27 3 28 3 10 -11
-19 -14 -19 -14 1 -16 16 -1 16 -2 -5 -8 -14 -4 -28 -3 -31 2 -4 6 -14 7 -22
4 -9 -3 -18 -1 -21 6 -3 8 -9 5 -17 -8 -12 -19 -12 -19 -20 0 -7 20 -7 20 -15
1 -5 -13 -3 -21 4 -24 15 -5 16 -22 2 -22 -17 0 -31 49 -20 70 7 13 6 20 -3
24 -6 4 -2 4 10 2 13 -2 26 1 30 7 5 8 9 7 11 -4 2 -9 15 -19 30 -22z m2262
25 c0 -5 -7 -17 -16 -28 -14 -17 -15 -17 -10 -1 3 10 6 23 6 28 0 5 5 9 10 9
6 0 10 -4 10 -8z m30 -21 c0 -6 -4 -13 -10 -16 -5 -3 -10 1 -10 9 0 9 5 16 10
16 6 0 10 -4 10 -9z m120 -16 c0 -8 -4 -15 -10 -15 -5 0 -7 7 -4 15 4 8 8 15
10 15 2 0 4 -7 4 -15z m-1390 -10 c0 -8 -7 -15 -15 -15 -9 0 -12 6 -9 15 4 8
10 15 15 15 5 0 9 -7 9 -15z m279 6 c8 -5 12 -18 8 -30 -3 -12 -1 -19 4 -15 5
3 9 -2 9 -10 0 -9 9 -16 21 -16 18 0 20 -4 14 -37 -3 -21 -10 -39 -15 -41 -22
-8 -8 -23 18 -20 20 2 26 8 25 23 -1 11 2 35 7 54 6 21 6 41 -1 52 -7 14 -5
21 12 29 27 15 45 0 60 -50 10 -34 9 -42 -15 -83 -15 -24 -27 -60 -28 -79 -1
-30 -6 -37 -32 -46 -33 -12 -173 -5 -182 9 -2 4 -2 19 2 33 5 20 9 23 19 13 7
-7 11 -15 8 -19 -6 -10 9 -10 25 0 8 5 10 16 6 27 -6 15 -4 17 12 11 10 -5 28
-10 39 -12 12 -3 14 -2 5 2 -28 12 -49 36 -44 49 4 8 -3 15 -17 17 -17 2 -25
12 -29 33 -4 17 -12 40 -18 50 -10 19 -11 19 -17 3 -13 -33 -22 -18 -11 17 9
29 16 35 46 38 19 2 40 4 45 5 6 1 16 -2 24 -7z m766 -50 c-12 -12 -26 19 -19
40 7 24 7 24 15 -5 5 -17 6 -32 4 -35z m434 35 l23 -24 -22 -7 c-12 -4 -19
-12 -16 -20 3 -9 -2 -13 -15 -12 -14 1 -19 9 -19 29 0 15 -5 30 -12 34 -8 5
-6 10 8 15 28 11 29 11 53 -15z m-472 -19 c2 -15 -1 -16 -12 -7 -8 6 -22 11
-32 10 -29 -3 -43 -1 -43 9 0 4 19 8 43 7 35 0 43 -4 44 -19z m-1650 -19 c-3
-7 -5 -2 -5 12 0 14 2 19 5 13 2 -7 2 -19 0 -25z m148 22 c3 -6 -1 -7 -9 -4
-18 7 -21 14 -7 14 6 0 13 -4 16 -10z m440 -10 c3 -5 2 -10 -4 -10 -5 0 -13 5
-16 10 -3 6 -2 10 4 10 5 0 13 -4 16 -10z m1140 0 c3 -5 1 -10 -4 -10 -6 0
-11 5 -11 10 0 6 2 10 4 10 3 0 8 -4 11 -10z m325 -5 c0 -8 -7 -15 -15 -15 -8
0 -15 7 -15 15 0 8 7 15 15 15 8 0 15 -7 15 -15z m-2530 -5 c0 -5 -2 -10 -4
-10 -3 0 -8 5 -11 10 -3 6 -1 10 4 10 6 0 11 -4 11 -10z m2460 -11 c0 -5 -9
-9 -20 -9 -13 0 -18 5 -14 14 6 15 34 11 34 -5z m165 1 c-3 -5 -12 -10 -18
-10 -7 0 -6 4 3 10 19 12 23 12 15 0z m-2758 -22 c-3 -8 -6 -5 -6 6 -1 11 2
17 5 13 3 -3 4 -12 1 -19z m1398 1 c4 -11 4 -24 0 -27 -9 -9 -36 28 -29 39 9
15 22 10 29 -12z m-601 -6 c3 -10 9 -24 12 -31 3 -7 0 -11 -8 -10 -12 3 -18
-27 -20 -114 -1 -16 -5 -28 -9 -28 -5 0 -9 -9 -9 -20 0 -17 5 -19 25 -14 22 5
25 3 25 -21 0 -24 -1 -25 -16 -11 -18 19 -34 21 -34 5 0 -8 -5 -8 -15 1 -17
14 -21 35 -5 25 6 -4 10 7 10 25 0 18 -4 29 -10 25 -6 -3 -10 4 -10 17 0 18 2
20 10 8 11 -16 11 -16 13 50 1 25 6 48 12 53 6 4 5 10 -3 16 -11 7 -10 9 3 15
9 3 13 10 10 16 -3 5 -2 10 3 10 5 0 12 -8 16 -17z m74 5 c-6 -18 -28 -21 -28
-4 0 9 7 16 16 16 9 0 14 -5 12 -12z m1072 -8 c0 -5 -4 -10 -10 -10 -5 0 -10
5 -10 10 0 6 5 10 10 10 6 0 10 -4 10 -10z m-1703 -33 c2 -28 -2 -36 -23 -46
-23 -10 -26 -9 -31 9 -3 11 -9 20 -14 20 -5 0 -9 4 -9 10 0 6 9 6 25 0 21 -8
25 -7 25 9 0 18 8 31 19 31 3 0 7 -15 8 -33z m1625 11 c-7 -7 -12 -8 -12 -2 0
6 3 14 7 17 3 4 9 5 12 2 2 -3 -1 -11 -7 -17z m-1773 -35 c-4 -27 -5 -60 -2
-74 3 -15 0 -30 -6 -33 -6 -4 -11 0 -11 8 0 10 -9 17 -22 17 l-23 2 23 4 c25
5 30 38 7 47 -8 3 -15 10 -15 16 0 6 5 8 10 5 6 -4 15 7 21 24 16 47 27 37 18
-16z m2221 37 c0 -5 -11 -10 -25 -10 -14 0 -25 5 -25 10 0 6 11 10 25 10 14 0
25 -4 25 -10z m-2298 -15 c0 -5 -5 -11 -11 -13 -6 -2 -11 4 -11 13 0 9 5 15
11 13 6 -2 11 -8 11 -13z m728 -1 c0 -8 -5 -12 -10 -9 -6 4 -8 11 -5 16 9 14
15 11 15 -7z m1512 -8 c7 4 8 2 4 -4 -9 -14 -16 -15 -35 -3 -8 5 -10 14 -6 21
6 9 10 8 17 -4 5 -9 14 -13 20 -10z m280 -8 c-9 -9 -12 -7 -12 12 0 19 3 21
12 12 9 -9 9 -15 0 -24z m-2405 -5 c-3 -3 -11 -2 -17 2 -9 6 -9 10 1 16 14 8
27 -7 16 -18z m932 4 c16 0 32 -6 35 -14 7 -18 -29 -17 -59 3 -14 9 -25 21
-25 28 0 6 4 5 9 -3 5 -8 23 -14 40 -14z m1671 -3 c0 -8 -4 -14 -10 -14 -5 0
-10 9 -10 21 0 11 5 17 10 14 6 -3 10 -13 10 -21z m-1883 10 c-3 -3 -12 -4
-19 -1 -8 3 -5 6 6 6 11 1 17 -2 13 -5z m1623 -9 c0 -8 -4 -15 -9 -15 -13 0
-22 16 -14 24 11 11 23 6 23 -9z m205 -4 c-3 -6 -14 -10 -23 -10 -15 1 -15 2
1 6 9 2 17 9 17 15 0 6 3 9 6 5 3 -3 3 -10 -1 -16z m-1737 -4 c6 0 12 -4 12
-9 0 -12 -58 -10 -65 2 -4 6 -11 8 -16 5 -5 -4 -9 -1 -9 6 0 8 10 9 33 4 17
-4 38 -7 45 -8z m942 -13 c0 -15 -9 -17 -34 -8 -15 6 -15 8 1 19 20 15 33 11
33 -11z m30 10 c0 -8 -4 -12 -10 -9 -5 3 -10 10 -10 16 0 5 5 9 10 9 6 0 10
-7 10 -16z m200 1 c0 -8 -4 -15 -10 -15 -5 0 -7 7 -4 15 4 8 8 15 10 15 2 0 4
-7 4 -15z m-2130 -9 c0 -8 4 -16 10 -18 13 -4 18 -43 5 -43 -5 0 -9 4 -7 9 2
5 -1 12 -5 15 -4 3 -17 16 -27 29 -19 22 -19 22 2 22 12 0 22 -6 22 -14z m760
-4 c0 -4 -11 -8 -26 -8 -23 -2 -24 -1 -7 11 17 13 33 11 33 -3z m-125 -2 c3
-5 1 -10 -4 -10 -6 0 -11 5 -11 10 0 6 2 10 4 10 3 0 8 -4 11 -10z m2008 -49
c-9 -34 -19 -15 -15 26 4 32 6 35 13 16 4 -11 5 -30 2 -42z m-2505 3 c0 -27
-4 -41 -8 -33 -7 13 -2 79 6 79 2 0 3 -21 2 -46z m902 19 c0 -13 -3 -13 -15
-3 -8 7 -15 16 -15 21 0 5 7 6 15 3 8 -4 15 -13 15 -21z m104 12 c-4 -8 -13
-15 -21 -15 -13 0 -13 3 -3 15 7 8 16 15 21 15 5 0 6 -7 3 -15z m1601 6 c3 -5
1 -12 -5 -16 -5 -3 -10 1 -10 9 0 18 6 21 15 7z m55 -1 c0 -5 -7 -7 -15 -4 -8
4 -15 8 -15 10 0 2 7 4 15 4 8 0 15 -4 15 -10z m-100 -31 c0 -11 -4 -17 -10
-14 -5 3 -10 15 -10 26 0 11 5 17 10 14 6 -3 10 -15 10 -26z m-820 12 c0 -6
-5 -13 -10 -16 -6 -4 -9 -14 -8 -22 2 -9 -2 -18 -8 -20 -6 -2 -8 10 -6 32 3
21 10 35 18 35 8 0 14 -4 14 -9z m115 -1 c3 -6 -1 -7 -9 -4 -18 7 -21 14 -7
14 6 0 13 -4 16 -10z m-1066 -14 c10 -12 8 -13 -8 -9 -12 3 -21 9 -21 14 0 14
16 11 29 -5z m1215 -1 c-4 -8 -11 -15 -16 -15 -6 0 -5 6 2 15 7 8 14 15 16 15
2 0 1 -7 -2 -15z m381 5 c3 -5 1 -10 -4 -10 -6 0 -11 -7 -11 -15 0 -8 -4 -15
-9 -15 -5 0 -8 11 -8 25 0 25 20 34 32 15z m65 0 c0 -5 -4 -10 -10 -10 -5 0
-10 5 -10 10 0 6 5 10 10 10 6 0 10 -4 10 -10z m-2610 -10 c0 -5 -5 -10 -11
-10 -5 0 -7 5 -4 10 3 6 8 10 11 10 2 0 4 -4 4 -10z m1149 -24 c-3 -3 -15 -3
-26 0 -17 5 -19 9 -10 19 10 11 14 11 26 -1 8 -7 13 -16 10 -18z m106 16 c-3
-3 -11 0 -18 7 -9 10 -8 11 6 5 10 -3 15 -9 12 -12z m1118 7 c-4 -4 -17 -9
-28 -11 -11 -2 -19 -11 -19 -21 1 -9 -2 -14 -7 -11 -17 10 -9 35 13 43 27 10
51 10 41 0z m121 5 c13 -5 13 -8 1 -20 -16 -16 -35 -18 -35 -4 0 6 5 10 11 10
5 0 7 5 4 10 -7 12 -3 12 19 4z m-1494 -14 c8 -5 11 -12 8 -16 -4 -3 -14 1
-23 10 -18 17 -9 21 15 6z m80 -10 c0 -13 -7 -20 -20 -20 -12 0 -20 7 -20 16
0 14 2 15 17 3 15 -12 16 -12 10 4 -3 9 -2 17 3 17 6 0 10 -9 10 -20z m1487
-2 c-3 -8 -6 -5 -6 6 -1 11 2 17 5 13 3 -3 4 -12 1 -19z m-2377 -3 c0 -8 -4
-15 -10 -15 -5 0 -7 7 -4 15 4 8 8 15 10 15 2 0 4 -7 4 -15z m1038 -13 c14
-19 16 -32 3 -32 -5 0 -11 9 -14 20 -4 14 -11 18 -31 14 -25 -4 -34 5 -19 19
10 10 46 -2 61 -21z m92 6 c0 -13 -23 -5 -28 10 -2 7 2 10 12 6 9 -3 16 -11
16 -16z m1466 7 c16 -12 16 -14 3 -15 -9 0 -22 7 -29 15 -16 19 0 19 26 0z
m-2793 -10 c4 -8 2 -17 -3 -20 -6 -4 -10 3 -10 14 0 25 6 27 13 6z m2134 -7
c-3 -8 -6 -5 -6 6 -1 11 2 17 5 13 3 -3 4 -12 1 -19z m-1557 2 c0 -5 -4 -10
-10 -10 -5 0 -10 5 -10 10 0 6 5 10 10 10 6 0 10 -4 10 -10z m1150 -17 c0 -20
-3 -24 -11 -16 -7 7 -9 19 -6 27 10 24 17 19 17 -11z m230 6 c0 -5 -4 -9 -10
-9 -5 0 -10 7 -10 16 0 8 5 12 10 9 6 -3 10 -10 10 -16z m290 11 c0 -5 -2 -10
-4 -10 -3 0 -8 5 -11 10 -3 6 -1 10 4 10 6 0 11 -4 11 -10z m58 -37 c-14 -18
-36 -5 -34 21 1 22 2 22 23 7 14 -11 18 -20 11 -28z m422 38 c0 -5 9 -13 20
-16 31 -10 24 -24 -7 -16 -27 7 -46 41 -24 41 6 0 11 -4 11 -9z m-1590 -21
c13 -7 17 -18 14 -35 -3 -17 1 -27 12 -32 13 -5 13 -7 2 -15 -10 -7 -8 -12 9
-27 l23 -19 -41 -4 c-28 -2 -43 1 -46 9 -8 21 -20 15 -27 -12 -4 -14 -13 -25
-21 -25 -19 0 -19 7 0 27 8 8 12 19 9 25 -5 8 8 9 39 6 33 -4 45 -2 40 6 -4 6
-10 29 -13 51 -6 40 -9 42 -45 29 l-20 -7 20 16 c24 20 22 19 45 7z m860 1 c0
-5 -7 -12 -16 -15 -14 -5 -15 -4 -4 9 14 17 20 19 20 6z m517 -39 c-8 -10 -7
-16 2 -22 10 -5 10 -9 1 -15 -14 -9 -21 -3 -24 22 -2 11 -10 17 -21 15 -17 -3
-14 9 10 34 15 18 46 -16 32 -34z m-1219 18 c-7 -11 -16 -20 -20 -20 -11 0
-10 9 5 25 18 21 29 18 15 -5z m43 7 c-1 -12 -15 -9 -19 4 -3 6 1 10 8 8 6 -3
11 -8 11 -12z m774 -7 c7 -21 0 -40 -15 -40 -5 0 -8 13 -7 30 2 34 13 39 22
10z m88 -10 c5 -21 11 -28 22 -24 20 8 19 -2 -4 -25 -17 -17 -19 -17 -29 -1
-6 10 -8 27 -5 39 3 13 1 21 -6 21 -7 0 -9 5 -6 10 11 18 22 10 28 -20z m32
20 c3 -5 1 -10 -4 -10 -6 0 -11 5 -11 10 0 6 2 10 4 10 3 0 8 -4 11 -10z
m-2212 -31 c12 -1 36 -3 52 -5 20 -2 34 2 43 13 11 16 12 16 12 0 0 -20 16
-23 23 -4 3 7 6 5 6 -5 1 -12 -6 -18 -19 -18 -12 0 -20 -7 -20 -17 -1 -17 -1
-17 -11 0 -6 10 -22 17 -39 17 -22 0 -30 -5 -30 -17 -1 -17 -1 -17 -11 0 -12
21 -29 22 -29 2 0 -8 -4 -15 -10 -15 -12 0 -13 24 -3 60 6 19 8 21 11 8 2 -10
13 -19 25 -19z m432 21 c3 -5 -1 -10 -10 -10 -9 0 -13 5 -10 10 3 6 8 10 10
10 2 0 7 -4 10 -10z m602 -20 c1 -17 -3 -30 -8 -30 -6 0 -9 -6 -6 -12 3 -9 -7
-14 -29 -15 -39 -3 -46 14 -10 23 15 3 29 17 35 35 13 37 15 36 18 -1z m148
-18 c-8 -8 -35 20 -35 37 1 12 5 11 21 -8 11 -13 17 -26 14 -29z m1370 38 c3
-5 1 -10 -4 -10 -6 0 -11 5 -11 10 0 6 2 10 4 10 3 0 8 -4 11 -10z m-1335 -10
c0 -5 -7 -7 -15 -4 -8 4 -15 8 -15 10 0 2 7 4 15 4 8 0 15 -4 15 -10z m150 0
c0 -5 -2 -10 -4 -10 -3 0 -8 5 -11 10 -3 6 -1 10 4 10 6 0 11 -4 11 -10z
m-874 -27 c-10 -10 -19 5 -10 18 6 11 8 11 12 0 2 -7 1 -15 -2 -18z m602 18
c11 -7 11 -9 -2 -14 -19 -7 -46 1 -46 14 0 11 31 11 48 0z m1642 -6 c14 -16
10 -18 -14 -9 -9 3 -16 10 -16 15 0 14 16 11 30 -6z m-2206 -10 c3 -8 2 -15
-2 -15 -4 0 -8 -9 -9 -20 -1 -11 4 -20 13 -20 8 0 14 -7 14 -16 0 -8 -4 -13
-9 -9 -5 3 -12 1 -16 -5 -4 -6 -11 -7 -17 -4 -6 4 -14 0 -19 -7 -6 -10 -8 -7
-6 9 0 12 7 22 14 22 8 0 13 14 13 40 0 40 13 53 24 25z m405 -14 c-6 -2 -15
3 -20 10 -6 10 -9 11 -9 2 0 -7 -7 -13 -15 -13 -8 0 -15 5 -15 11 0 5 4 8 9 4
5 -3 12 -1 16 5 4 6 13 5 26 -3 11 -7 14 -14 8 -16z m805 -23 c-9 -13 -21 -9
-28 10 -3 9 -9 23 -12 29 -3 7 6 3 19 -9 14 -13 23 -26 21 -30z m166 18 c-14
-14 -32 3 -17 18 9 10 14 11 19 2 4 -6 3 -15 -2 -20z m390 18 c0 -8 -4 -12
-10 -9 -5 3 -10 1 -10 -5 0 -6 -5 -8 -11 -5 -6 5 -4 12 8 21 23 17 23 17 23
-2z m346 -23 c0 -11 -6 -17 -12 -14 -7 3 -12 13 -11 23 2 23 23 15 23 -9z m36
4 c-2 -14 -6 -25 -8 -25 -2 0 -4 11 -4 25 0 14 4 25 9 25 4 0 6 -11 3 -25z
m-2499 9 c-7 -3 -9 -13 -6 -22 7 -18 5 -17 -16 11 -12 15 -11 17 10 16 13 0
19 -3 12 -5z m85 -8 c12 0 22 -4 22 -7 0 -15 -46 -18 -56 -4 -6 8 -13 12 -16
9 -4 -3 -9 0 -14 7 -5 9 -1 10 17 4 13 -4 34 -8 47 -9z m1107 -8 c-4 -10 -14
-14 -26 -11 -26 7 -24 21 4 25 28 5 29 4 22 -14z m-137 3 c4 -2 -2 -6 -13 -10
-20 -8 -55 -3 -55 8 0 5 48 7 68 2z m732 -1 c0 -5 -2 -10 -4 -10 -3 0 -8 5
-11 10 -3 6 -1 10 4 10 6 0 11 -4 11 -10z m97 -12 c-3 -8 -6 -5 -6 6 -1 11 2
17 5 13 3 -3 4 -12 1 -19z m-1239 -4 c26 9 62 -21 61 -49 -1 -17 -2 -17 -6 -2
-3 12 -11 16 -23 12 -10 -3 -21 -1 -25 5 -3 6 -11 8 -16 5 -5 -4 -9 -1 -9 4 0
6 -7 11 -15 11 -9 0 -12 6 -8 16 4 11 8 12 13 4 4 -7 16 -9 28 -6z m444 -12
c-18 -14 -20 -20 -10 -30 9 -9 9 -12 0 -12 -7 0 -12 6 -12 13 0 8 -3 7 -10 -3
-5 -8 -12 -12 -15 -8 -4 3 4 15 16 27 13 12 19 21 13 22 -5 0 0 4 11 8 29 12
33 2 7 -17z m748 18 c0 -5 -4 -10 -10 -10 -5 0 -10 5 -10 10 0 6 5 10 10 10 6
0 10 -4 10 -10z m-1886 -37 c-1 -20 -6 -39 -13 -41 -8 -3 -10 5 -6 25 15 64
20 69 19 16z m266 27 c0 -5 -2 -10 -4 -10 -3 0 -8 5 -11 10 -3 6 -1 10 4 10 6
0 11 -4 11 -10z m942 -9 c13 -6 44 -13 71 -16 35 -5 47 -10 47 -24 0 -12 -8
-17 -27 -16 -17 0 -27 -5 -25 -12 2 -14 -16 -17 -42 -7 -20 8 -21 24 -2 24 8
0 18 5 22 12 5 8 2 9 -9 5 -10 -4 -20 0 -25 9 -5 8 -16 16 -25 18 -19 3 -35
16 -19 16 6 0 21 -4 34 -9z m-1372 -13 c0 -4 -7 -8 -15 -8 -8 0 -15 4 -15 8 0
5 7 9 15 9 8 0 15 -4 15 -9z m2233 5 c11 -10 -13 -32 -29 -26 -20 8 -17 33 4
33 10 0 22 -3 25 -7z m368 -23 c9 0 10 -3 3 -8 -6 -4 -14 -14 -17 -22 -4 -11
-7 -10 -12 8 -4 12 -11 22 -16 22 -5 0 -9 7 -9 17 0 15 1 15 18 0 10 -10 25
-17 33 -17z m69 0 c0 -5 -4 -10 -9 -10 -6 0 -13 5 -16 10 -3 6 1 10 9 10 9 0
16 -4 16 -10z m60 -14 c0 -8 7 -16 15 -20 9 -3 15 -18 15 -35 0 -29 -1 -30
-27 -16 -20 10 -31 11 -40 3 -10 -8 -13 -5 -11 16 2 18 8 26 21 26 14 0 17 5
12 20 -4 11 -2 20 4 20 6 0 11 -6 11 -14z m-2498 -20 c-3 -11 -7 -15 -10 -8
-5 16 -29 16 -35 0 -3 -7 -6 -4 -6 8 -1 16 5 21 28 21 24 0 27 -4 23 -21z m73
1 c13 -3 9 -5 -12 -6 -31 -1 -49 10 -36 23 3 3 11 2 17 -3 6 -5 20 -11 31 -14z
m1685 3 c16 0 30 4 32 10 2 6 14 4 30 -4 15 -8 29 -11 33 -8 3 3 33 7 66 8 58
1 59 1 37 -15 -13 -8 -32 -14 -43 -13 -17 2 -17 1 -5 -7 30 -21 -34 -15 -66 5
-15 10 -24 12 -29 5 -3 -6 -15 -11 -26 -11 -13 0 -19 -7 -19 -22 -1 -20 -2
-21 -13 -8 -7 9 -20 14 -30 12 -29 -6 -46 5 -40 27 3 12 11 17 19 14 9 -3 14
2 15 13 0 11 3 14 6 7 2 -7 17 -13 33 -13z m314 4 c18 -18 22 -69 5 -58 -6 3
-9 15 -6 25 4 15 0 19 -19 19 -23 0 -31 10 -17 23 10 11 20 8 37 -9z m-1147 0
c-3 -3 -12 -4 -19 -1 -8 3 -5 6 6 6 11 1 17 -2 13 -5z m568 -68 c2 -46 -1 -69
-11 -77 -26 -21 -30 57 -8 134 10 31 16 11 19 -57z m935 52 c0 -19 -2 -20 -10
-8 -13 19 -13 30 0 30 6 0 10 -10 10 -22z m-1426 4 c3 -5 30 -9 61 -10 58 -1
95 -15 95 -34 0 -6 -8 -4 -18 5 -24 22 -112 24 -112 2 0 -20 31 -35 51 -24 12
6 21 4 29 -6 11 -13 8 -15 -18 -15 -19 0 -35 -7 -44 -22 -8 -12 -26 -22 -41
-22 -25 -2 -27 1 -21 27 4 20 2 32 -7 38 -10 6 -6 9 14 9 35 0 36 26 2 34 -14
4 -23 11 -20 16 8 12 22 13 29 2z m1126 -2 c0 -5 -5 -10 -11 -10 -5 0 -7 5 -4
10 3 6 8 10 11 10 2 0 4 -4 4 -10z m-1420 -10 c0 -5 -7 -10 -15 -10 -8 0 -15
5 -15 10 0 6 7 10 15 10 8 0 15 -4 15 -10z m550 0 c0 -5 -4 -10 -10 -10 -5 0
-10 -16 -10 -35 0 -24 5 -35 15 -35 17 0 20 -16 5 -25 -5 -3 -10 -1 -10 4 0 6
-7 11 -15 11 -11 0 -15 12 -15 50 0 43 3 50 20 50 11 0 20 -4 20 -10z m-1349
-27 c-8 -15 -10 -15 -11 -2 0 17 10 32 18 25 2 -3 -1 -13 -7 -23z m169 17 c0
-5 -2 -10 -4 -10 -3 0 -8 5 -11 10 -3 6 -1 10 4 10 6 0 11 -4 11 -10z m670 -6
c0 -8 -4 -12 -10 -9 -5 3 -10 10 -10 16 0 5 5 9 10 9 6 0 10 -7 10 -16z m810
-20 c-8 -21 -13 -25 -19 -15 -5 8 -2 20 8 31 21 22 24 19 11 -16z m-940 16 c0
-5 -5 -10 -11 -10 -5 0 -7 5 -4 10 3 6 8 10 11 10 2 0 4 -4 4 -10z m160 0 c0
-5 -4 -10 -10 -10 -5 0 -10 5 -10 10 0 6 5 10 10 10 6 0 10 -4 10 -10z m80 -7
c2 -2 -2 -8 -10 -13 -10 -7 -19 -5 -26 5 -6 8 -14 12 -17 8 -4 -3 -7 -1 -7 6
0 10 46 6 60 -6z m46 4 c4 -4 -2 -7 -14 -7 -12 0 -22 4 -22 9 0 10 26 9 36 -2z
m52 -5 c2 -7 -6 -12 -17 -12 -21 0 -27 11 -14 24 9 9 26 2 31 -12z m668 -8
c-4 -9 -9 -15 -11 -12 -3 3 -3 13 1 22 4 9 9 15 11 12 3 -3 3 -13 -1 -22z
m414 22 c0 -11 -19 -15 -25 -6 -3 5 1 10 9 10 9 0 16 -2 16 -4z m-1660 -22 c0
-2 -9 -4 -20 -4 -11 0 -20 4 -20 9 0 5 9 7 20 4 11 -3 20 -7 20 -9z m283 -21
c8 -45 -6 -60 -32 -32 -25 27 -27 39 -6 39 8 0 15 5 15 10 0 22 18 8 23 -17z
m1377 7 c0 -5 -7 -7 -15 -4 -8 4 -15 8 -15 10 0 2 7 4 15 4 8 0 15 -4 15 -10z
m-875 -28 c-8 -8 -25 10 -19 20 4 6 9 5 15 -3 4 -7 6 -15 4 -17z m838 1 c7
-16 12 -35 10 -45 -3 -11 5 -18 26 -23 17 -4 33 -11 36 -16 4 -5 11 -9 17 -9
6 0 5 7 -3 17 -10 11 -11 17 -3 20 7 2 10 13 7 23 -3 11 -1 20 3 21 5 0 19 2
32 3 18 2 22 -2 22 -26 0 -44 26 -87 48 -81 11 2 18 13 18 25 -1 15 6 22 22
23 22 2 30 -9 13 -20 -6 -3 -16 -19 -25 -35 -13 -27 -13 -31 3 -39 13 -7 16
-19 13 -46 -4 -32 -2 -36 14 -33 11 2 24 14 29 27 9 21 14 22 65 17 31 -4 58
-13 63 -21 4 -8 14 -12 22 -9 9 4 15 0 15 -8 0 -8 17 -28 38 -45 20 -17 47
-49 60 -71 l23 -41 -28 -7 c-15 -4 -49 -20 -75 -36 -51 -31 -65 -30 -102 11
-11 12 -28 21 -38 21 -10 0 -21 7 -24 15 -8 19 -38 19 -67 1 -34 -23 -219 -8
-244 19 -10 11 -17 28 -15 38 2 11 -5 21 -20 26 l-23 10 26 0 c19 1 29 -7 42
-33 l16 -35 82 4 c59 3 87 9 100 21 11 10 18 18 17 19 -2 2 -30 -3 -63 -9 -50
-10 -66 -10 -97 2 -20 8 -39 21 -42 29 -4 10 -1 11 14 3 10 -5 33 -10 50 -10
25 0 31 3 26 16 -3 9 -6 20 -6 25 0 13 -64 11 -77 -2 -8 -8 -13 -5 -18 10 -7
23 -31 28 -38 9 -2 -7 -7 3 -12 22 -4 19 -13 44 -21 54 -20 28 8 79 39 72 12
-3 16 -3 8 0 -10 5 -10 8 -1 14 8 5 8 11 -4 22 -8 9 -12 18 -9 22 4 3 -1 6
-10 6 -20 0 -20 1 -7 34 12 34 36 33 53 -1z m317 6 c0 -6 -4 -7 -10 -4 -5 3
-10 11 -10 16 0 6 5 7 10 4 6 -3 10 -11 10 -16z m107 6 c8 -22 -6 -33 -17 -15
-13 20 -12 30 0 30 6 0 13 -7 17 -15z m-1651 -11 c-3 -9 -6 -18 -6 -20 0 -2
-7 -4 -15 -4 -18 0 -19 6 -2 25 16 19 31 19 23 -1z m42 -15 c-5 -34 17 -53 33
-28 5 8 9 9 9 3 0 -7 11 -14 25 -16 17 -4 25 -1 25 8 0 8 5 14 11 14 6 0 9 -7
5 -15 -3 -10 1 -15 12 -15 13 0 14 -2 4 -8 -7 -5 -10 -16 -7 -24 4 -11 -1 -17
-20 -20 -14 -3 -28 -1 -31 3 -3 5 0 9 5 9 6 0 11 9 11 20 0 17 -7 20 -44 20
-25 0 -48 -4 -51 -10 -11 -18 -25 -10 -25 15 0 16 6 25 15 25 17 0 20 16 5 25
-12 7 -4 25 12 25 6 0 8 -13 6 -31z m149 11 c-1 -11 -5 -20 -9 -20 -4 0 -8 9
-8 20 0 11 4 20 9 20 6 0 9 -9 8 -20z m803 5 c0 -8 -4 -15 -10 -15 -5 0 -10 7
-10 15 0 8 5 15 10 15 6 0 10 -7 10 -15z m140 -7 c0 -18 -2 -20 -9 -8 -6 8 -7
18 -5 22 9 14 14 9 14 -14z m-1010 -4 c0 -2 -9 -4 -21 -4 -11 0 -18 4 -14 10
5 8 35 3 35 -6z m670 6 c0 -5 -2 -10 -4 -10 -3 0 -8 5 -11 10 -3 6 -1 10 4 10
6 0 11 -4 11 -10z m290 1 c0 -5 -9 -11 -20 -14 -13 -3 -20 0 -20 9 0 8 9 14
20 14 11 0 20 -4 20 -9z m510 -7 c0 -8 -5 -12 -10 -9 -6 4 -8 11 -5 16 9 14
15 11 15 -7z m142 -10 c-5 -24 -19 -40 -29 -31 -4 4 -2 12 4 18 6 6 9 18 6 27
-4 10 -1 13 8 10 8 -3 12 -14 11 -24z m-2232 6 c0 -5 -4 -10 -10 -10 -5 0 -10
5 -10 10 0 6 5 10 10 10 6 0 10 -4 10 -10z m430 6 c0 -2 -7 -9 -15 -16 -12
-10 -15 -10 -15 4 0 9 7 16 15 16 8 0 15 -2 15 -4z m1606 -13 c29 -9 55 -22
58 -29 4 -10 -1 -11 -17 -4 -12 4 -43 14 -69 20 -26 7 -45 16 -42 21 7 12 9
12 70 -8z m-1906 -2 c0 -18 -18 -21 -30 -6 -10 13 -9 15 9 15 11 0 21 -4 21
-9z m705 0 c3 -5 1 -12 -4 -15 -5 -3 -11 1 -15 9 -6 16 9 21 19 6z m96 -21
c31 0 30 -18 -1 -36 -16 -10 -30 -27 -30 -37 0 -16 -6 -18 -50 -15 -42 2 -50
0 -50 -14 0 -10 -5 -18 -11 -18 -5 0 -7 5 -4 10 3 6 3 16 -2 23 -23 38 -16
114 8 77 5 -8 7 -25 4 -36 -5 -24 10 -34 51 -34 28 0 42 25 27 48 -12 20 16
57 31 42 6 -6 18 -10 27 -10z m869 0 c0 -7 -13 -7 -38 -1 -2 1 -1 5 3 11 6 10
35 2 35 -10z m-1447 3 c-7 -2 -19 -2 -25 0 -7 3 -2 5 12 5 14 0 19 -2 13 -5z
m97 -9 c0 -8 -5 -12 -10 -9 -6 4 -13 -7 -16 -24 -7 -32 -24 -43 -24 -15 0 8
-7 23 -17 32 -15 15 -14 17 8 23 41 12 59 10 59 -7z m1160 12 c0 -3 -4 -8 -10
-11 -5 -3 -10 -1 -10 4 0 6 5 11 10 11 6 0 10 -2 10 -4z m540 -12 c0 -8 -4
-12 -10 -9 -5 3 -10 10 -10 16 0 5 5 9 10 9 6 0 10 -7 10 -16z m240 6 c0 -5
-4 -10 -10 -10 -5 0 -10 5 -10 10 0 6 5 10 10 10 6 0 10 -4 10 -10z m-1045
-10 c3 -5 1 -10 -4 -10 -6 0 -11 5 -11 10 0 6 2 10 4 10 3 0 8 -4 11 -10z m65
-9 c0 -6 -4 -13 -10 -16 -5 -3 -10 1 -10 9 0 9 5 16 10 16 6 0 10 -4 10 -9z
m-179 -24 c-1 -12 -15 -9 -19 4 -3 6 1 10 8 8 6 -3 11 -8 11 -12z m93 -2 c-4
-8 -8 -15 -10 -15 -2 0 -4 7 -4 15 0 8 4 15 10 15 5 0 7 -7 4 -15z m216 5 c0
-5 -5 -10 -11 -10 -5 0 -7 5 -4 10 3 6 8 10 11 10 2 0 4 -4 4 -10z m-1020 -23
c30 -3 28 -4 -12 -5 -38 -2 -48 1 -48 14 0 12 3 14 13 6 6 -6 28 -12 47 -15z
m64 7 c9 -22 8 -24 -9 -24 -8 0 -15 9 -15 20 0 24 15 27 24 4z m396 6 c0 -5
-7 -10 -15 -10 -8 0 -15 5 -15 10 0 6 7 10 15 10 8 0 15 -4 15 -10z m50 -10
c0 -5 -7 -7 -15 -4 -8 4 -12 10 -9 15 6 11 24 2 24 -11z m584 14 c9 -3 16 -15
16 -25 0 -12 -5 -16 -15 -13 -10 4 -18 -2 -24 -17 -8 -21 -10 -22 -15 -6 -15
43 -15 45 6 39 17 -4 20 -2 15 11 -7 19 -6 20 17 11z m576 -9 c0 -8 5 -15 10
-15 6 0 10 -7 10 -15 0 -8 -7 -15 -15 -15 -8 0 -15 -7 -15 -15 0 -8 5 -15 10
-15 6 0 10 -10 9 -22 0 -22 -1 -22 -9 -3 -5 11 -9 16 -10 10 -1 -5 -6 1 -10
15 -8 24 -8 24 -9 3 -1 -15 -7 -23 -19 -23 -18 0 -35 24 -47 68 -8 28 11 30
20 1 6 -19 8 -19 19 -3 8 10 20 15 28 11 12 -4 14 0 11 14 -3 10 0 19 6 19 6
0 11 -7 11 -15z m-2543 -1 c-3 -3 -12 -4 -19 -1 -8 3 -5 6 6 6 11 1 17 -2 13
-5z m1093 -29 c-10 -12 -15 -13 -21 -3 -11 17 11 42 24 29 7 -7 6 -15 -3 -26z
m-1050 10 c0 -8 6 -15 13 -15 8 0 14 -7 14 -15 0 -12 -7 -14 -31 -9 -39 8 -39
8 -31 33 7 24 35 29 35 6z m55 5 c3 -5 -1 -10 -9 -10 -9 0 -16 5 -16 10 0 6 4
10 9 10 6 0 13 -4 16 -10z m945 0 c0 -5 -5 -10 -11 -10 -5 0 -7 5 -4 10 3 6 8
10 11 10 2 0 4 -4 4 -10z m620 -10 c0 -5 -4 -10 -10 -10 -5 0 -10 5 -10 10 0
6 5 10 10 10 6 0 10 -4 10 -10z m-263 -14 c9 -8 -56 -5 -92 5 -23 6 -16 7 28
5 32 -2 61 -6 64 -10z m-1527 -26 c-15 -20 -19 -37 -15 -52 6 -19 5 -21 -6
-11 -9 9 -16 10 -26 2 -25 -21 -13 4 23 47 40 50 56 59 24 14z m1080 15 c0 -8
-2 -15 -4 -15 -2 0 -6 7 -10 15 -3 8 -1 15 4 15 6 0 10 -7 10 -15z m760 -6 c0
-5 -4 -9 -10 -9 -5 0 -10 7 -10 16 0 8 5 12 10 9 6 -3 10 -10 10 -16z m-1780
1 c0 -5 -4 -10 -10 -10 -5 0 -10 5 -10 10 0 6 5 10 10 10 6 0 10 -4 10 -10z
m1900 0 c0 -5 -5 -10 -11 -10 -5 0 -7 5 -4 10 3 6 8 10 11 10 2 0 4 -4 4 -10z
m810 0 c0 -5 -5 -10 -11 -10 -5 0 -7 5 -4 10 3 6 8 10 11 10 2 0 4 -4 4 -10z
m-50 -36 c0 -24 -17 -15 -22 11 -4 20 -3 23 8 14 8 -6 14 -18 14 -25z m140 27
c0 -6 -4 -13 -10 -16 -5 -3 -10 1 -10 9 0 9 5 16 10 16 6 0 10 -4 10 -9z
m-1820 -28 c0 -13 -3 -13 -15 -3 -8 7 -15 16 -15 21 0 5 7 6 15 3 8 -4 15 -13
15 -21z m257 5 c-3 -8 -6 -5 -6 6 -1 11 2 17 5 13 3 -3 4 -12 1 -19z m1523 12
c0 -5 -4 -10 -10 -10 -5 0 -10 5 -10 10 0 6 5 10 10 10 6 0 10 -4 10 -10z
m-1840 -22 c0 -18 -2 -20 -9 -8 -6 8 -7 18 -5 22 9 14 14 9 14 -14z m1070 13
c0 -12 -20 -25 -27 -18 -7 7 6 27 18 27 5 0 9 -4 9 -9z m80 -7 c0 -8 -4 -12
-10 -9 -5 3 -10 10 -10 16 0 5 5 9 10 9 6 0 10 -7 10 -16z m-1920 -4 c8 -5 11
-12 8 -16 -4 -3 -14 1 -23 10 -18 17 -9 21 15 6z m900 0 c0 -5 -2 -10 -4 -10
-3 0 -8 5 -11 10 -3 6 -1 10 4 10 6 0 11 -4 11 -10z m70 0 c0 -5 -2 -10 -4
-10 -3 0 -8 5 -11 10 -3 6 -1 10 4 10 6 0 11 -4 11 -10z m800 6 c0 -3 -4 -8
-10 -11 -5 -3 -10 -1 -10 4 0 6 5 11 10 11 6 0 10 -2 10 -4z m-1074 -20 c15
-15 20 -56 6 -56 -4 0 -12 16 -18 35 -12 38 -10 42 12 21z m339 4 c3 -5 1 -10
-4 -10 -6 0 -11 5 -11 10 0 6 2 10 4 10 3 0 8 -4 11 -10z m649 -36 c2 -25 -2
-29 -26 -30 -27 -1 -28 0 -12 17 10 11 14 19 9 19 -4 0 -2 6 4 13 6 8 9 16 7
19 -1 3 1 2 6 -2 6 -4 11 -21 12 -36z m-1830 20 c5 -12 2 -15 -10 -10 -14 5
-16 1 -11 -29 7 -40 3 -44 -14 -14 -8 16 -8 27 2 45 15 28 24 30 33 8z m1236
-4 c0 -5 -9 -6 -20 -3 -11 3 -17 9 -15 14 7 10 35 1 35 -11z m310 -12 c0 -11
-8 -10 -31 3 -11 5 -17 14 -14 19 6 10 45 -9 45 -22z m500 22 c0 -5 -2 -10 -4
-10 -3 0 -8 5 -11 10 -3 6 -1 10 4 10 6 0 11 -4 11 -10z m-1240 -10 c0 -5 -7
-10 -15 -10 -8 0 -15 5 -15 10 0 6 7 10 15 10 8 0 15 -4 15 -10z m150 0 c0 -5
-4 -10 -10 -10 -5 0 -10 5 -10 10 0 6 5 10 10 10 6 0 10 -4 10 -10z m350 0 c0
-5 -4 -10 -10 -10 -5 0 -10 5 -10 10 0 6 5 10 10 10 6 0 10 -4 10 -10z m93
-16 c-4 -10 -9 -12 -15 -6 -12 12 -1 35 12 27 5 -3 6 -13 3 -21z m1350 14 c7
-22 -4 -47 -19 -41 -16 6 -15 53 2 53 7 0 14 -6 17 -12z m-2268 -7 c3 -5 1
-12 -5 -16 -5 -3 -10 1 -10 9 0 18 6 21 15 7z m2179 -13 c9 -33 8 -38 -8 -38
-20 0 -26 12 -19 38 7 28 19 28 27 0z m-1674 -9 c0 -5 -4 -9 -10 -9 -5 0 -10
7 -10 16 0 8 5 12 10 9 6 -3 10 -10 10 -16z m110 -9 c0 -16 -13 -17 -31 -2
-27 23 -24 34 6 20 14 -6 25 -14 25 -18z m40 20 c0 -5 -4 -10 -10 -10 -5 0
-10 5 -10 10 0 6 5 10 10 10 6 0 10 -4 10 -10z m750 -5 c0 -8 -4 -15 -10 -15
-5 0 -10 7 -10 15 0 8 5 15 10 15 6 0 10 -7 10 -15z m170 -2 l24 -17 -34 -7
c-41 -9 -92 -1 -84 13 4 5 15 7 26 5 11 -3 21 0 25 9 7 18 13 18 43 -3z
m-1150 3 c0 -3 -4 -8 -10 -11 -5 -3 -10 -1 -10 4 0 6 5 11 10 11 6 0 10 -2 10
-4z m-860 -22 c0 -8 -4 -12 -10 -9 -5 3 -10 10 -10 16 0 5 5 9 10 9 6 0 10 -7
10 -16z m1272 -6 c-7 -7 -12 -8 -12 -2 0 14 12 26 19 19 2 -3 -1 -11 -7 -17z
m442 7 c3 -8 1 -15 -4 -15 -6 0 -10 7 -10 15 0 8 2 15 4 15 2 0 6 -7 10 -15z
m-524 -5 c0 -5 -4 -10 -10 -10 -5 0 -10 5 -10 10 0 6 5 10 10 10 6 0 10 -4 10
-10z m-640 -22 c12 -16 15 -29 10 -48 -4 -15 -4 -33 0 -41 13 -22 23 -156 13
-162 -19 -12 -36 12 -34 45 5 56 4 70 -6 151 -5 42 -7 77 -5 77 2 0 12 -10 22
-22z m240 12 c0 -5 -4 -10 -10 -10 -5 0 -10 5 -10 10 0 6 5 10 10 10 6 0 10
-4 10 -10z m320 6 c0 -11 -19 -15 -25 -6 -3 5 1 10 9 10 9 0 16 -2 16 -4z
m665 -15 c3 -5 1 -12 -5 -16 -5 -3 -10 1 -10 9 0 18 6 21 15 7z m925 -11 c0
-11 -4 -20 -10 -20 -5 0 -10 9 -10 20 0 11 5 20 10 20 6 0 10 -9 10 -20z
m-2706 -5 c3 -9 0 -15 -9 -15 -8 0 -15 7 -15 15 0 8 4 15 9 15 5 0 11 -7 15
-15z m85 -21 c3 -16 1 -17 -13 -5 -19 16 -21 34 -3 29 6 -3 14 -13 16 -24z
m900 -1 c0 -16 -3 -22 -6 -13 -3 8 -10 21 -16 28 -7 8 -5 12 7 12 11 0 16 -8
15 -27z m165 6 c-3 -5 -10 -7 -15 -3 -5 3 -7 10 -3 15 3 5 10 7 15 3 5 -3 7
-10 3 -15z m-125 -3 c8 -10 9 -16 1 -21 -13 -8 -30 3 -30 21 0 18 14 18 29 0z
m57 -32 c-6 -16 -8 -16 -22 -3 -9 9 -12 23 -8 33 6 16 8 16 22 3 9 -9 12 -23
8 -33z m144 32 c0 -8 7 -17 16 -20 8 -3 13 -10 9 -15 -3 -6 -6 -26 -7 -46 -1
-38 -13 -47 -21 -15 -3 13 -10 18 -21 14 -11 -4 -16 -1 -16 10 0 9 -8 16 -17
16 -15 0 -16 -2 -3 -10 12 -8 12 -10 -3 -16 -14 -5 -15 -9 -6 -20 9 -11 6 -14
-19 -14 -25 0 -29 3 -25 20 3 11 13 20 21 20 12 0 11 4 -6 16 -33 23 -27 33
28 40 32 4 50 11 50 20 0 8 5 14 10 14 6 0 10 -6 10 -14z m640 4 c0 -5 -7 -10
-15 -10 -8 0 -15 5 -15 10 0 6 7 10 15 10 8 0 15 -4 15 -10z m-1414 -14 c23 6
24 4 24 -43 l0 -49 -65 0 c-43 0 -64 3 -61 10 3 6 11 30 17 53 12 38 15 40 37
32 13 -5 34 -6 48 -3z m305 -4 c-7 -2 -18 1 -23 6 -8 8 -4 9 13 5 13 -4 18 -8
10 -11z m62 -3 c4 -16 3 -18 -9 -8 -16 13 -19 29 -5 29 5 0 11 -9 14 -21z
m487 11 c0 -5 -5 -10 -11 -10 -5 0 -7 5 -4 10 3 6 8 10 11 10 2 0 4 -4 4 -10z
m-430 -10 c0 -5 -5 -10 -11 -10 -5 0 -7 5 -4 10 3 6 8 10 11 10 2 0 4 -4 4
-10z m1120 -6 c0 -8 -4 -12 -10 -9 -5 3 -10 10 -10 16 0 5 5 9 10 9 6 0 10 -7
10 -16z m-2010 -10 c0 -8 -5 -12 -10 -9 -6 4 -8 11 -5 16 9 14 15 11 15 -7z
m170 0 c0 -8 -5 -12 -10 -9 -6 4 -8 11 -5 16 9 14 15 11 15 -7z m1593 -30 c-9
-23 -28 -10 -31 22 -4 28 -3 28 16 10 12 -10 18 -24 15 -32z m326 -44 c-6 -19
-22 -43 -36 -54 l-25 -19 7 44 c4 24 14 55 22 68 13 20 17 21 29 10 11 -11 11
-22 3 -49z m638 44 c-3 -3 -12 -4 -19 -1 -8 3 -5 6 6 6 11 1 17 -2 13 -5z
m-1635 -58 c-3 -6 -8 -3 -10 4 -3 8 -9 18 -15 21 -5 4 -6 12 -2 19 6 9 11 6
21 -11 7 -13 10 -28 6 -33z m-669 -3 c-7 -2 -13 -19 -13 -36 0 -40 -10 -56
-38 -62 -20 -3 -22 0 -22 36 0 30 4 39 18 39 14 0 14 2 3 9 -11 7 -9 10 10 14
34 6 57 7 42 0z m1227 -38 c0 -8 -4 -15 -10 -15 -5 0 -10 7 -10 15 0 8 5 15
10 15 6 0 10 -7 10 -15z m-978 -75 c-6 -41 -12 -38 -12 6 0 19 4 33 8 30 5 -3
7 -19 4 -36z m884 -67 c-3 -8 -11 -11 -17 -8 -6 4 -8 13 -5 21 3 8 0 14 -7 14
-7 0 -4 5 6 11 9 5 18 18 19 27 0 9 3 2 5 -16 3 -19 2 -41 -1 -49z m1129 29
c-3 -3 -11 0 -18 7 -9 10 -8 11 6 5 10 -3 15 -9 12 -12z"/>
<path d="M1730 1395 c7 -8 17 -15 22 -15 5 0 3 7 -6 15 -8 8 -18 15 -22 15 -3
0 -1 -7 6 -15z"/>
<path d="M2380 929 c0 -5 5 -7 10 -4 6 3 10 8 10 11 0 2 -4 4 -10 4 -5 0 -10
-5 -10 -11z"/>
<path d="M2383 873 c-19 -7 -16 -43 3 -43 8 0 13 -4 9 -9 -8 -13 13 -24 32
-17 14 6 13 9 -6 30 -11 12 -19 25 -15 28 8 9 -9 16 -23 11z"/>
<path d="M2316 821 c-3 -5 1 -14 9 -21 12 -10 15 -10 15 3 0 19 -16 31 -24 18z"/>
<path d="M2593 663 c-7 -2 -13 -12 -13 -20 0 -10 6 -13 16 -9 9 3 20 6 25 6 5
0 9 7 9 15 0 15 -14 18 -37 8z"/>
<path d="M1978 2013 c7 -3 16 -2 19 1 4 3 -2 6 -13 5 -11 0 -14 -3 -6 -6z"/>
<path d="M2770 2010 c0 -5 4 -10 9 -10 6 0 13 5 16 10 3 6 -1 10 -9 10 -9 0
-16 -4 -16 -10z"/>
<path d="M2770 1980 c0 -5 5 -10 10 -10 6 0 10 5 10 10 0 6 -4 10 -10 10 -5 0
-10 -4 -10 -10z"/>
<path d="M815 1550 c3 -5 8 -10 11 -10 2 0 4 5 4 10 0 6 -5 10 -11 10 -5 0 -7
-4 -4 -10z"/>
<path d="M89 1128 c-7 -28 -5 -38 7 -38 16 0 19 26 4 35 -5 3 -10 5 -11 3z"/>
<path d="M2 1006 c-1 -64 1 -72 18 -73 24 -2 37 16 20 27 -10 6 -10 18 -1 53
15 62 15 65 -13 65 -22 0 -23 -4 -24 -72z"/>
<path d="M91 1064 c0 -11 3 -14 6 -6 3 7 2 16 -1 19 -3 4 -6 -2 -5 -13z"/>
<path d="M173 984 c-16 -7 -17 -64 -2 -64 6 0 8 9 4 21 -6 18 -5 19 14 7 12
-7 21 -17 21 -22 0 -5 9 -1 20 9 18 16 20 16 20 2 0 -10 6 -17 14 -17 18 0 31
49 17 63 -8 8 -11 6 -11 -6 0 -18 -16 -24 -22 -7 -4 11 -58 21 -75 14z"/>
<path d="M300 965 c0 -8 5 -15 10 -15 6 0 10 7 10 15 0 8 -4 15 -10 15 -5 0
-10 -7 -10 -15z"/>
<path d="M580 930 c0 -5 5 -10 11 -10 5 0 7 5 4 10 -3 6 -8 10 -11 10 -2 0 -4
-4 -4 -10z"/>
<path d="M480 690 c0 -5 5 -10 10 -10 6 0 10 5 10 10 0 6 -4 10 -10 10 -5 0
-10 -4 -10 -10z"/>
<path d="M2593 495 c0 -8 8 -15 18 -15 12 0 16 5 13 15 -4 8 -12 15 -18 15 -7
0 -13 -7 -13 -15z"/>
<path d="M1446 343 c-11 -11 -6 -23 9 -23 8 0 15 4 15 9 0 13 -16 22 -24 14z"/>
<path d="M2217 233 c-14 -13 -6 -20 18 -15 14 2 22 8 19 13 -6 11 -28 12 -37
2z"/>
<path d="M905 220 c4 -6 11 -8 16 -5 14 9 11 15 -7 15 -8 0 -12 -5 -9 -10z"/>
<path d="M740 202 c0 -6 -3 -17 -6 -26 -4 -12 0 -16 15 -16 14 0 21 -6 21 -19
0 -11 7 -26 15 -35 8 -8 15 -19 15 -25 0 -6 5 -11 10 -11 16 0 12 17 -15 56
-14 20 -25 42 -25 49 0 7 -7 18 -15 25 -9 8 -15 8 -15 2z"/>
<path d="M2308 203 c6 -2 18 -2 25 0 6 3 1 5 -13 5 -14 0 -19 -2 -12 -5z"/>
<path d="M467 184 c-11 -11 14 -34 37 -34 21 1 21 1 1 12 -11 6 -23 15 -26 20
-3 4 -8 5 -12 2z"/>
<path d="M560 165 c0 -8 5 -15 10 -15 6 0 10 7 10 15 0 8 -4 15 -10 15 -5 0
-10 -7 -10 -15z"/>
<path d="M675 171 c-3 -5 -1 -12 5 -16 12 -7 30 2 30 16 0 12 -27 12 -35 0z"/>
<path d="M835 170 c3 -5 8 -10 11 -10 2 0 4 5 4 10 0 6 -5 10 -11 10 -5 0 -7
-4 -4 -10z"/>
<path d="M2430 144 c-19 -7 -43 -13 -52 -13 -37 -2 -16 -21 22 -21 22 0 40 4
40 9 0 5 11 12 25 15 14 4 25 11 25 16 0 13 -16 11 -60 -6z"/>
<path d="M346 132 c-2 -4 4 -13 14 -20 14 -8 21 -8 26 -1 4 6 0 15 -7 20 -18
11 -26 11 -33 1z"/>
<path d="M590 80 c8 -5 29 -10 45 -11 29 -1 29 -1 -5 -8 -20 -4 -42 -11 -49
-15 -8 -5 -16 -4 -21 4 -12 20 -50 2 -50 -24 0 -22 4 -23 71 -25 56 -1 74 2
83 15 10 12 28 17 70 16 48 0 57 2 54 16 -2 13 -17 17 -62 19 -32 1 -64 7 -70
13 -5 5 -26 10 -45 10 -27 0 -32 -3 -21 -10z m125 -30 c3 -5 -1 -10 -9 -10 -9
0 -16 5 -16 10 0 6 4 10 9 10 6 0 13 -4 16 -10z"/>
<path d="M356 41 c-4 -5 4 -12 16 -14 l23 -4 -22 -2 c-32 -2 -29 -21 3 -21 21
0 25 4 22 22 -3 24 -32 36 -42 19z"/>
<path d="M180 10 c0 -5 5 -10 10 -10 6 0 10 5 10 10 0 6 -4 10 -10 10 -5 0
-10 -4 -10 -10z"/>
<path d="M260 10 c-11 -7 -7 -10 18 -10 20 0 31 4 27 10 -8 13 -26 13 -45 0z"/>
<path d="M1690 10 c0 -5 5 -10 10 -10 6 0 10 5 10 10 0 6 -4 10 -10 10 -5 0
-10 -4 -10 -10z"/>
</g>
</svg>
