<?xml version="1.0" standalone="no"?>
<!DOCTYPE svg PUBLIC "-//W3C//DTD SVG 20010904//EN"
 "http://www.w3.org/TR/2001/REC-SVG-20010904/DTD/svg10.dtd">
<svg version="1.0" xmlns="http://www.w3.org/2000/svg"
 width="1920.000000pt" height="1080.000000pt" viewBox="0 0 1920.000000 1080.000000"
 preserveAspectRatio="xMidYMid meet">

<g transform="translate(0.000000,1080.000000) scale(0.100000,-0.100000)"
fill="#000000" stroke="none">
<path d="M6577 9640 c-65 -44 -119 -80 -121 -80 -1 0 -81 -52 -177 -115 l-174
-115 -817 0 -818 0 0 -35 0 -35 832 0 831 0 189 123 c103 67 227 148 275 180
49 31 97 61 108 66 16 7 2898 28 3059 23 21 -1 46 2 55 7 13 8 11 11 -12 16
-15 4 -27 11 -27 16 0 13 28 11 32 -2 5 -16 108 -25 108 -10 0 6 -17 11 -40
11 -22 0 -40 4 -40 9 0 6 -8 11 -17 11 -10 1 -718 4 -1573 6 l-1555 3 -118
-79z"/>
<path d="M9948 9673 c6 -2 18 -2 25 0 6 3 1 5 -13 5 -14 0 -19 -2 -12 -5z"/>
<path d="M6670 9435 c-63 -42 -171 -112 -240 -157 -69 -44 -149 -97 -179 -117
l-55 -36 -400 0 c-1064 0 -1326 -4 -1326 -20 0 -8 1 -15 3 -15 1 -1 389 -3
862 -6 l860 -6 60 40 c33 22 121 79 195 127 74 48 182 119 239 156 l105 69
1200 1 c1204 2 1303 3 1314 13 3 3 12 0 20 -7 9 -7 17 -8 19 -2 2 6 60 9 153
8 82 -1 178 2 212 6 35 4 -243 8 -617 9 -374 1 -1047 5 -1495 8 l-815 5 -115
-76z"/>
<path d="M9821 9496 c12 -10 59 -15 59 -6 0 5 -14 10 -32 10 -17 0 -29 -2 -27
-4z"/>
<path d="M6846 9291 c-4 -5 3 -7 14 -4 23 6 26 13 6 13 -8 0 -17 -4 -20 -9z"/>
<path d="M7378 9293 c12 -2 32 -2 45 0 12 2 2 4 -23 4 -25 0 -35 -2 -22 -4z"/>
<path d="M7818 9293 c78 -2 206 -2 285 0 78 1 14 3 -143 3 -157 0 -221 -2
-142 -3z"/>
<path d="M10641 8216 c2 -2 299 -5 659 -7 373 -2 660 -7 668 -12 9 -7 12 -80
12 -306 l0 -296 -108 -108 -107 -107 -636 0 c-350 0 -1386 -3 -2302 -7 l-1667
-6 0 -29 0 -28 1808 0 c995 0 2038 -3 2318 -7 l509 -6 133 133 132 132 -2 327
-3 326 -709 3 c-390 1 -708 0 -705 -2z"/>
<path d="M7426 8193 c-25 -7 -116 -93 -127 -121 -5 -13 -13 -21 -18 -18 -5 3
-15 -2 -22 -11 -12 -15 -12 -16 4 -10 20 7 22 -3 5 -22 -10 -11 -10 -13 0 -7
7 4 12 2 12 -5 0 -8 6 -6 18 4 24 22 33 12 21 -20 -7 -20 -7 -24 5 -20 8 3 13
-1 12 -10 0 -9 5 -18 13 -21 8 -2 11 0 8 5 -3 5 -2 15 2 22 6 9 9 4 9 -13 0
-19 -6 -26 -20 -26 -11 0 -16 -5 -13 -11 4 -6 14 -8 22 -5 11 5 13 1 8 -15 -5
-13 -3 -19 3 -15 5 3 13 -1 16 -10 5 -12 2 -15 -9 -10 -9 3 -13 2 -10 -4 3 -6
12 -10 20 -10 7 0 13 -10 13 -22 1 -81 15 -164 31 -178 10 -9 17 -23 16 -31
-3 -20 96 -82 139 -87 17 -2 57 -4 89 -4 31 0 60 -4 63 -9 9 -15 44 -10 44 6
0 22 14 18 25 -7 8 -18 17 -23 45 -21 19 1 29 0 22 -3 -6 -3 -10 -9 -7 -14 3
-4 -9 -15 -27 -23 l-31 -15 44 -10 c43 -10 43 -10 -21 -8 -41 2 -50 1 -25 -3
33 -4 25 -6 -45 -11 -47 -3 187 -6 520 -6 333 0 583 3 555 7 -27 4 -84 8 -125
10 l-75 2 60 7 c57 6 58 7 15 8 -29 2 -40 5 -32 11 11 7 11 14 -3 42 -23 44
-25 46 -34 30 -5 -7 -14 -11 -20 -7 -7 4 -4 13 7 25 9 10 22 14 27 10 22 -17
160 4 187 28 10 9 30 14 45 12 64 -7 284 1 300 10 13 8 -21 10 -124 11 l-142
0 -42 75 c-44 76 -59 87 -66 47 -2 -16 4 -25 22 -32 21 -8 25 -16 25 -50 l0
-40 -105 0 -105 0 0 44 c0 35 4 45 20 49 18 5 20 14 20 100 0 84 -2 95 -19
100 -14 3 -20 16 -23 46 -2 23 0 45 4 49 4 4 0 8 -10 8 -15 0 -17 -12 -17 -91
0 -76 3 -91 18 -97 24 -10 27 -85 3 -100 -6 -4 -8 -8 -4 -8 4 0 -1 -15 -12
-32 -11 -18 -20 -48 -20 -65 0 -18 -5 -33 -11 -33 -6 0 -9 12 -8 28 4 34 -20
94 -34 85 -6 -4 -7 -1 -3 6 5 7 0 21 -11 33 -15 18 -15 20 -2 16 13 -5 16 0
14 26 -3 31 -3 31 38 27 39 -3 40 -3 24 14 -12 11 -28 16 -48 13 -27 -4 -30
-2 -35 34 -5 29 -11 38 -26 38 -17 0 -19 -7 -16 -97 3 -93 4 -98 26 -101 19
-3 22 -9 22 -48 l0 -44 -105 0 -105 0 0 44 c0 35 4 45 20 49 18 5 20 14 20
101 0 89 -1 96 -20 96 -16 0 -20 -7 -20 -35 0 -35 0 -35 -45 -35 l-46 0 3 86
3 85 168 0 c92 0 167 4 167 9 0 4 -64 7 -142 5 -93 -2 -148 1 -161 9 -15 8
-21 8 -24 -1 -5 -14 -43 -18 -43 -5 0 11 -56 43 -63 36 -3 -3 -11 -3 -17 1 -7
4 -4 13 11 26 l22 19 -23 0 c-12 0 -38 9 -56 21 -35 21 -44 39 -21 39 8 0 7 4
-3 10 -12 8 -9 10 13 10 15 0 27 4 27 9 0 4 -34 11 -77 15 -86 7 -568 6 -597
-1z m217 -33 c17 -16 28 -32 24 -36 -4 -4 -16 1 -27 12 -28 28 -44 40 -60 47
-10 3 -7 6 8 6 13 1 37 -12 55 -29z m-33 -215 c0 -29 -5 -47 -15 -53 -13 -7
-15 -25 -13 -98 l3 -89 40 0 40 0 3 89 c2 72 0 90 -13 100 -12 8 -15 24 -13
51 l3 40 90 0 90 0 3 -43 c3 -37 0 -44 -17 -49 -20 -5 -21 -13 -21 -117 0 -61
-4 -116 -8 -121 -4 -6 -20 -21 -36 -33 -25 -19 -41 -22 -122 -22 -90 0 -95 1
-129 31 l-35 31 0 114 c0 107 -1 114 -20 114 -17 0 -20 7 -20 50 l0 50 95 0
95 0 0 -45z m570 8 c38 -35 40 -39 40 -97 0 -59 -2 -62 -40 -93 -35 -30 -45
-33 -104 -33 -53 0 -66 -3 -66 -15 0 -9 11 -20 25 -25 21 -8 25 -16 25 -50 l0
-40 -105 0 -105 0 0 45 c0 38 3 45 20 45 11 0 20 6 21 13 7 154 4 179 -18 188
-18 7 -23 16 -23 47 0 21 3 42 7 45 3 4 69 7 145 7 l139 0 39 -37z m27 22 c0
-8 -4 -12 -9 -9 -5 3 -6 10 -3 15 9 13 12 11 12 -6z m338 -215 c-3 -5 -12 -10
-18 -10 -7 0 -6 4 3 10 19 12 23 12 15 0z m88 -327 c-7 -2 -19 -2 -25 0 -7 3
-2 5 12 5 14 0 19 -2 13 -5z m-650 -20 c-13 -2 -33 -2 -45 0 -13 2 -3 4 22 4
25 0 35 -2 23 -4z"/>
<path d="M8017 7884 c-4 -4 -7 -18 -7 -31 0 -22 3 -24 43 -21 35 2 43 7 45 26
2 12 2 22 0 22 -2 1 -19 3 -38 6 -20 3 -39 2 -43 -2z"/>
<path d="M7232 8013 c-6 -2 -10 -9 -6 -14 8 -14 21 -11 21 6 0 8 -1 15 -1 14
-1 0 -7 -3 -14 -6z"/>
<path d="M8678 7993 c7 -3 16 -2 19 1 4 3 -2 6 -13 5 -11 0 -14 -3 -6 -6z"/>
<path d="M7180 7955 c-17 -21 -5 -31 15 -12 8 9 15 18 15 21 0 11 -18 6 -30
-9z"/>
<path d="M9960 7931 c0 -6 16 -39 35 -73 l36 -63 -3 45 c-3 39 -6 45 -26 48
-15 2 -22 9 -18 17 2 7 -2 19 -10 25 -10 9 -14 9 -14 1z"/>
<path d="M10184 7918 c-4 -6 3 -19 16 -30 25 -20 40 -23 40 -8 0 6 -9 10 -20
10 -18 0 -25 10 -21 33 2 11 -7 8 -15 -5z"/>
<path d="M10415 7920 c-3 -5 -1 -10 6 -10 7 0 9 -3 5 -7 -3 -4 4 -13 16 -20
13 -7 18 -12 11 -13 -14 0 -8 -23 14 -55 12 -18 13 -15 13 24 0 34 -4 44 -20
48 -11 3 -20 11 -20 19 0 17 -17 27 -25 14z"/>
<path d="M10634 7922 c3 -6 2 -13 -4 -17 -14 -9 -13 -28 2 -23 15 5 19 36 6
45 -6 3 -8 1 -4 -5z"/>
<path d="M9106 7878 c3 -5 10 -5 16 -2 6 4 8 -2 3 -17 -5 -19 -4 -21 4 -9 16
23 13 39 -8 37 -11 0 -17 -5 -15 -9z"/>
<path d="M9517 7870 c-3 -11 -2 -22 2 -24 4 -3 8 6 9 20 2 29 -4 31 -11 4z"/>
<path d="M9660 7876 c0 -8 4 -17 9 -21 6 -3 9 4 8 15 -1 23 -17 28 -17 6z"/>
<path d="M9773 7875 c0 -8 4 -12 9 -9 4 3 8 9 8 15 0 5 -4 9 -8 9 -5 0 -9 -7
-9 -15z"/>
<path d="M10136 7875 c-3 -9 0 -15 8 -15 7 0 13 7 13 15 0 8 -4 15 -8 15 -4 0
-9 -7 -13 -15z"/>
<path d="M11056 7883 c6 -4 14 -15 17 -23 5 -11 6 -9 4 4 -1 11 -9 21 -17 23
-10 3 -11 2 -4 -4z"/>
<path d="M8812 7858 c3 -20 9 -23 43 -23 34 0 40 3 43 23 3 20 -1 22 -43 22
-42 0 -46 -2 -43 -22z"/>
<path d="M10810 7855 c0 -22 4 -25 30 -23 19 1 29 7 26 14 -3 7 2 15 10 18 8
3 13 2 10 -2 -3 -4 3 -13 13 -19 17 -11 17 -9 7 13 -9 20 -18 24 -53 24 -39 0
-43 -2 -43 -25z"/>
<path d="M11200 7854 c0 -23 3 -25 38 -22 30 2 38 7 40 26 3 20 -1 22 -37 22
-37 0 -41 -2 -41 -26z"/>
<path d="M11560 7865 c0 -11 5 -15 15 -11 8 3 15 1 15 -4 0 -6 14 -10 31 -10
24 0 30 4 27 18 -5 24 -88 31 -88 7z"/>
<path d="M9227 7839 c-10 -35 -9 -39 8 -39 16 0 18 14 6 44 -7 18 -8 18 -14
-5z"/>
<path d="M11680 7833 c14 -3 32 -11 40 -19 14 -11 16 -11 16 6 0 17 -7 20 -41
19 -27 -1 -32 -3 -15 -6z"/>
<path d="M11396 7793 c-6 -14 -5 -15 5 -6 7 7 10 15 7 18 -3 3 -9 -2 -12 -12z"/>
<path d="M11440 7796 c0 -2 8 -10 18 -17 15 -13 16 -12 3 4 -13 16 -21 21 -21
13z"/>
<path d="M8999 7783 c-1 -5 -1 -11 0 -15 0 -4 -6 -5 -14 -2 -19 8 -19 0 0 -35
14 -28 45 -49 45 -31 0 6 -7 10 -15 10 -9 0 -12 6 -9 15 4 9 1 15 -7 15 -7 0
-3 7 9 16 12 8 20 20 17 25 -7 11 -25 12 -26 2z"/>
<path d="M9903 7745 c1 -37 6 -50 17 -50 10 0 16 -12 18 -34 3 -24 6 -31 12
-21 7 12 13 11 31 -5 16 -15 13 -6 -14 40 -19 33 -42 74 -51 90 l-16 30 3 -50z"/>
<path d="M10345 7760 c4 -19 12 -38 17 -41 6 -4 5 -9 -3 -12 -10 -4 -7 -8 8
-12 12 -4 27 -20 33 -36 15 -36 26 -44 26 -19 0 10 -4 16 -9 13 -5 -3 -7 0 -5
8 3 8 -6 31 -19 51 -12 21 -23 42 -23 47 0 5 -7 15 -16 22 -15 12 -16 10 -9
-21z"/>
<path d="M11355 7760 c-3 -5 -2 -10 4 -10 5 0 13 5 16 10 3 6 2 10 -4 10 -5 0
-13 -4 -16 -10z"/>
<path d="M11480 7766 c0 -2 7 -9 15 -16 9 -7 15 -8 15 -2 0 5 -7 12 -15 16 -8
3 -15 4 -15 2z"/>
<path d="M10810 7736 c0 -14 5 -28 11 -32 9 -5 10 1 5 22 -7 28 -7 28 9 9 16
-20 16 -20 13 0 -2 11 -11 21 -21 23 -12 3 -17 -3 -17 -22z"/>
<path d="M11200 7736 c0 -24 11 -46 24 -46 6 0 18 -14 25 -32 8 -18 16 -27 19
-20 4 14 -47 112 -60 112 -4 0 -8 -6 -8 -14z"/>
<path d="M11531 7743 c9 -2 22 -14 28 -26 10 -19 11 -19 6 -2 -4 17 -3 18 7 5
18 -21 68 -26 68 -7 0 18 -24 29 -45 21 -8 -4 -15 -1 -15 5 0 6 -15 10 -32 10
-18 -1 -26 -3 -17 -6z"/>
<path d="M9069 7723 c10 -4 8 -9 -10 -20 -14 -8 -16 -12 -6 -9 10 3 23 6 28 6
5 0 9 7 9 15 0 8 -8 15 -17 14 -13 0 -14 -2 -4 -6z"/>
<path d="M9190 7705 c0 -8 7 -15 15 -15 11 0 15 -11 15 -41 0 -52 24 -48 28 4
2 24 8 37 18 37 8 0 14 7 14 15 0 11 -12 15 -45 15 -33 0 -45 -4 -45 -15z"/>
<path d="M11709 7613 c-13 -16 -12 -17 4 -4 9 7 17 15 17 17 0 8 -8 3 -21 -13z"/>
<path d="M9302 7589 c18 -7 42 -7 70 -1 42 10 41 10 -27 10 -58 0 -65 -1 -43
-9z"/>
<path d="M9578 7593 c12 -2 32 -2 45 0 12 2 2 4 -23 4 -25 0 -35 -2 -22 -4z"/>
<path d="M9828 7593 c12 -2 30 -2 40 0 9 3 -1 5 -23 4 -22 0 -30 -2 -17 -4z"/>
<path d="M10278 7593 c12 -2 30 -2 40 0 9 3 -1 5 -23 4 -22 0 -30 -2 -17 -4z"/>
<path d="M10748 7593 c18 -2 45 -2 60 0 15 2 0 4 -33 4 -33 0 -45 -2 -27 -4z"/>
<path d="M2874 7006 c-88 -28 -150 -102 -161 -195 -21 -182 161 -316 327 -240
94 42 134 107 134 214 0 80 -14 115 -71 170 -37 36 -112 66 -162 64 -14 0 -44
-6 -67 -13z"/>
<path d="M16425 7011 c-144 -37 -218 -189 -157 -323 83 -186 342 -184 425 2
50 113 5 244 -104 300 -42 22 -121 32 -164 21z"/>
<path d="M3387 6341 c-37 -69 -127 -160 -262 -266 -27 -21 -133 -122 -235
-224 -180 -181 -187 -187 -255 -210 -39 -12 -105 -43 -149 -68 l-78 -44 -24
22 c-28 26 -30 50 -8 85 15 23 15 26 0 43 -9 9 -16 22 -16 28 0 5 -9 18 -19
27 -11 10 -21 28 -23 40 -2 13 -11 22 -24 24 -14 2 -24 12 -27 30 -12 59 -127
83 -196 41 -41 -25 -66 -55 -104 -123 -33 -59 -32 -107 2 -155 27 -38 26 -41
-6 -41 -15 0 -43 -11 -64 -25 -32 -23 -40 -24 -63 -14 -14 7 -26 19 -26 28 0
9 -5 66 -10 126 -17 197 -16 243 8 273 12 15 29 42 38 60 16 31 16 34 0 50
-14 15 -18 15 -26 2 -5 -8 -12 -12 -15 -9 -4 5 -35 160 -35 178 0 2 -6 1 -14
-2 -10 -4 -18 4 -25 24 -10 29 -30 40 -32 17 -1 -7 -1 -31 -1 -53 1 -34 0 -37
-8 -17 -24 56 -39 6 -21 -70 11 -48 -4 -50 -26 -3 -9 19 -23 35 -31 35 -16 0
-16 -1 29 -120 38 -100 39 -115 15 -327 -11 -94 -15 -182 -11 -208 6 -42 10
-48 60 -76 l54 -31 -16 -26 c-42 -67 -70 -79 -97 -41 -18 27 -43 19 -52 -16
-24 -96 102 -184 221 -154 50 13 125 75 125 104 0 25 13 18 106 -51 144 -107
243 -195 293 -259 85 -109 90 -142 29 -212 -84 -97 -102 -166 -113 -423 -8
-210 -10 -217 -49 -226 -17 -4 -25 -9 -18 -11 13 -5 17 -33 4 -33 -4 0 -29
-20 -56 -45 -32 -30 -54 -44 -66 -40 -46 15 -175 34 -265 40 -156 9 -234 25
-251 49 -14 21 -13 21 53 27 l68 5 -65 2 c-76 2 -97 14 -140 77 -48 70 -78 61
-167 -48 -17 -20 -33 -27 -60 -28 l-38 -2 34 -6 33 -6 -60 -72 c-93 -110 -125
-162 -126 -201 -2 -66 30 -65 125 3 40 28 48 30 142 30 101 1 116 6 130 48 2
7 32 3 83 -12 72 -22 278 -96 296 -107 8 -5 -19 -33 -85 -91 l-38 -33 -839 0
c-520 0 -841 4 -845 10 -5 8 140 123 329 263 28 20 53 42 54 47 2 6 8 10 14
10 5 0 16 6 23 13 57 50 127 97 147 97 10 0 18 5 18 11 0 8 -18 10 -61 5 -34
-3 -179 -7 -323 -8 l-261 -3 269 -5 c203 -4 270 -8 274 -17 2 -7 -2 -13 -8
-13 -6 0 -73 -46 -148 -102 -75 -57 -165 -125 -201 -152 -36 -27 -68 -52 -71
-56 -3 -4 -12 -11 -21 -16 -44 -25 -89 -70 -89 -88 l0 -21 837 3 c588 1 840
-1 847 -9 8 -7 -5 -25 -44 -61 -30 -28 -113 -106 -185 -173 -71 -67 -157 -146
-190 -176 -33 -30 -65 -60 -73 -67 -25 -23 -53 -33 -85 -31 -111 7 -1107 -2
-1107 -11 0 -7 191 -10 554 -10 327 0 557 -4 561 -9 4 -8 -26 -40 -135 -141
-9 -8 -34 -30 -55 -49 -22 -18 -107 -97 -189 -175 -82 -77 -165 -156 -184
-173 -19 -18 -45 -33 -56 -33 -12 -1 -128 -1 -258 0 -160 1 -238 -3 -238 -10
0 -7 76 -10 230 -10 244 0 253 -2 211 -46 -56 -57 -245 -236 -300 -284 -121
-105 -141 -126 -141 -150 0 -21 8 -15 68 43 68 67 79 77 168 156 27 24 98 89
158 145 60 55 118 108 130 116 18 13 148 15 998 17 537 2 979 -1 982 -5 8 -14
-67 -123 -131 -188 -15 -16 -47 -54 -70 -84 -23 -30 -56 -70 -73 -89 -17 -18
-57 -66 -88 -105 -31 -39 -65 -77 -74 -83 -9 -7 -26 -29 -38 -48 -12 -20 -37
-51 -55 -70 l-32 -35 -972 0 c-641 0 -971 -3 -971 -10 0 -7 323 -10 949 -10
617 0 952 -3 956 -10 6 -10 -35 -68 -87 -122 -15 -15 -45 -52 -67 -81 -21 -28
-53 -68 -71 -87 -18 -19 -44 -51 -58 -70 -15 -19 -46 -55 -68 -80 -23 -25 -59
-67 -79 -95 -21 -27 -53 -65 -71 -85 -54 -58 -77 -91 -69 -98 7 -7 105 92 105
107 0 4 24 33 53 63 28 31 59 66 67 78 26 38 64 82 108 127 23 24 42 46 42 51
0 4 23 32 50 62 28 30 72 82 98 115 25 33 61 75 78 93 l31 32 1079 -2 1079 -3
-2 -23 c-2 -12 -12 -32 -23 -44 -11 -12 -20 -27 -20 -33 0 -7 -9 -22 -20 -35
-11 -13 -20 -28 -20 -33 0 -6 -11 -25 -25 -43 -14 -18 -25 -35 -25 -39 0 -3
-18 -35 -40 -71 -22 -36 -40 -70 -40 -74 0 -4 -7 -10 -15 -14 -8 -3 -15 -15
-15 -26 0 -11 -4 -20 -10 -20 -5 0 -10 -5 -10 -10 0 -6 -12 -29 -27 -53 -41
-62 -50 -78 -73 -124 -11 -24 -25 -43 -30 -43 -6 0 -10 -7 -10 -16 0 -8 -11
-30 -25 -48 -14 -18 -25 -38 -25 -44 0 -6 -9 -16 -19 -22 -13 -7 -401 -10
-1184 -10 -990 0 -1166 2 -1176 14 -8 10 -9 16 -1 21 5 3 10 13 10 22 0 11
-10 6 -31 -18 -36 -41 37 -37 -714 -41 l-560 -3 600 -5 600 -5 5 -28 5 -28 29
30 30 31 1177 0 c837 0 1180 -3 1185 -11 3 -6 1 -16 -5 -22 -6 -6 -11 -17 -11
-25 0 -8 -9 -25 -20 -39 -22 -28 -25 -43 -10 -43 6 0 16 12 23 28 13 29 14 32
53 80 l26 32 1179 0 1179 0 5 -23 c3 -12 -1 -36 -9 -52 -9 -17 -16 -36 -16
-42 0 -22 18 -14 25 10 9 33 39 91 50 99 6 4 538 8 1183 8 l1172 0 11 -26 c9
-25 8 -75 -6 -189 l-6 -50 15 40 c9 22 16 66 16 97 0 60 13 107 33 120 7 4
540 8 1184 8 l1173 0 16 -25 c11 -17 18 -56 22 -115 2 -50 8 -90 11 -90 3 0 5
45 3 101 -2 67 1 105 9 115 10 12 177 14 1178 14 1040 0 1169 -2 1189 -16 12
-8 22 -21 22 -28 0 -8 7 -27 15 -42 8 -16 15 -37 15 -46 0 -10 4 -18 9 -18 5
0 12 -15 16 -32 7 -28 9 -30 12 -11 2 13 -3 33 -11 45 -9 12 -16 34 -16 48 0
14 -5 31 -11 37 -6 6 -9 21 -7 34 l3 24 1182 3 1182 2 26 -27 c14 -15 25 -33
25 -40 0 -7 4 -13 9 -13 5 0 11 -13 15 -30 3 -18 12 -30 21 -30 12 0 9 13 -17
60 -28 52 -31 62 -18 70 9 6 444 10 1183 10 1154 0 1169 0 1194 -20 14 -11 30
-20 34 -20 5 0 9 9 9 20 0 20 7 20 508 22 l507 3 -528 5 -529 5 -23 28 c-13
15 -29 27 -35 27 -5 0 -10 7 -10 15 0 8 -4 15 -8 15 -5 0 -13 10 -19 23 -11
23 -48 69 -98 122 -16 17 -43 49 -59 71 -16 21 -41 50 -54 64 -14 14 -45 52
-70 85 -26 33 -58 72 -72 86 -35 37 -61 68 -90 109 -14 19 -41 51 -62 72 -47
47 -71 84 -63 98 4 7 278 10 861 10 563 0 854 3 854 10 0 7 -298 10 -875 10
l-874 0 -33 33 c-18 18 -45 49 -59 68 -15 18 -39 48 -54 64 -14 17 -47 57 -73
90 -26 33 -62 76 -80 95 -19 19 -55 61 -79 93 -25 32 -57 70 -70 85 -45 48
-123 155 -123 168 0 19 1917 20 1967 1 18 -7 90 -66 160 -132 202 -191 188
-179 191 -161 3 15 -104 126 -215 224 -30 25 -53 54 -53 65 0 16 6 18 53 16
98 -5 217 1 217 11 0 6 -62 10 -166 10 l-166 0 -55 53 c-31 28 -81 77 -112
107 -32 30 -102 96 -157 145 -54 50 -117 108 -140 130 -22 22 -62 59 -88 83
-26 24 -44 47 -41 52 4 6 185 10 466 10 299 0 459 3 459 10 0 9 -344 15 -845
15 -131 0 -135 1 -205 65 -19 18 -98 92 -175 165 -77 72 -167 156 -200 185
-84 76 -87 79 -80 90 4 7 263 10 756 10 493 0 749 3 749 10 0 7 -266 10 -778
10 l-778 0 -52 50 c-29 27 -52 52 -52 55 0 10 79 44 205 88 183 63 186 63 207
30 17 -28 18 -28 121 -28 102 0 106 -1 143 -31 81 -64 124 -69 124 -13 0 43
-22 82 -111 191 l-79 97 43 4 42 4 -47 1 c-45 2 -50 5 -88 56 -66 87 -92 88
-155 6 l-46 -60 -354 0 c-195 0 -356 4 -359 8 -3 5 -10 100 -16 213 -14 281
-27 324 -126 448 -29 36 -35 50 -30 75 15 75 147 218 319 347 138 103 131 102
178 46 30 -35 53 -50 93 -63 48 -15 56 -15 108 0 72 21 118 69 118 124 0 39
-14 62 -37 62 -7 0 -13 -7 -13 -15 0 -16 -43 -31 -60 -20 -5 3 -19 24 -30 45
l-20 38 48 28 c26 15 50 32 54 38 13 19 9 188 -7 292 -24 160 -22 178 20 292
21 56 34 106 30 110 -4 4 -12 -1 -19 -12 -6 -10 -19 -28 -29 -40 -18 -21 -18
-20 -11 24 11 67 10 83 -2 87 -7 2 -17 -9 -23 -24 -9 -24 -10 -22 -5 19 7 55
-1 75 -22 57 -8 -6 -14 -20 -14 -30 0 -12 -5 -16 -14 -13 -21 8 -27 -10 -37
-94 -5 -41 -13 -80 -19 -86 -7 -7 -10 -5 -10 7 0 22 -19 22 -35 0 -15 -21 1
-60 43 -105 l26 -28 -12 -157 c-16 -212 -20 -233 -47 -245 -17 -8 -29 -4 -61
17 -26 18 -48 25 -66 22 -34 -4 -35 0 -3 43 37 50 34 104 -10 179 -49 83 -92
114 -163 118 -69 5 -102 -10 -121 -55 -9 -19 -22 -32 -33 -32 -10 0 -20 -10
-24 -25 -3 -13 -12 -29 -20 -36 -8 -6 -14 -18 -14 -27 0 -8 -8 -24 -17 -34
-15 -17 -15 -22 -2 -51 19 -39 15 -57 -16 -79 -23 -17 -25 -17 -81 17 -32 19
-94 49 -138 66 -45 17 -94 41 -111 54 -16 13 -111 104 -210 202 -99 99 -200
194 -225 212 -94 68 -204 184 -235 248 -16 34 -34 62 -39 63 -11 0 0 -73 21
-130 32 -90 56 -132 82 -143 31 -14 40 -24 135 -152 41 -55 92 -118 114 -140
104 -105 332 -397 332 -425 0 -6 -9 -28 -19 -49 -13 -25 -22 -69 -26 -137 -4
-54 -13 -124 -20 -154 -8 -30 -21 -89 -30 -130 -10 -41 -28 -110 -41 -153 -35
-113 -31 -217 7 -217 27 0 25 -47 -10 -215 -16 -77 -32 -165 -36 -195 -3 -30
-9 -63 -12 -73 -5 -17 -30 -18 -524 -15 -285 2 -519 0 -519 -4 0 -5 6 -8 14
-8 8 0 29 -19 48 -42 18 -24 37 -48 43 -54 5 -6 46 -55 90 -109 44 -54 101
-122 128 -152 26 -29 47 -60 47 -68 0 -13 -103 -15 -842 -15 -464 0 -847 4
-853 8 -11 8 -75 100 -75 107 0 3 -17 33 -38 67 -21 35 -42 70 -46 78 -11 24
-29 53 -53 87 -13 17 -23 35 -23 41 0 5 -7 15 -15 22 -8 7 -12 16 -9 21 3 5
343 9 786 9 430 0 779 2 777 4 -2 2 -777 6 -1721 9 -1695 5 -1718 5 -1718 -14
0 -16 3 -18 19 -9 21 11 120 14 145 4 9 -3 16 -14 16 -23 0 -9 7 -29 15 -45 8
-15 15 -37 15 -47 0 -10 4 -20 9 -24 5 -3 13 -20 17 -38 3 -17 13 -48 22 -67
8 -19 18 -44 22 -55 4 -11 13 -36 20 -55 7 -19 13 -44 14 -55 1 -20 -6 -20
-845 -23 -763 -2 -848 -1 -860 14 -20 25 -24 127 -6 163 l15 31 -54 0 -54 0
21 -41 c13 -27 21 -63 22 -103 l2 -61 -847 0 c-558 0 -848 3 -849 10 -5 43 6
155 17 176 7 15 10 29 7 33 -4 3 -1 6 5 6 7 0 12 -4 12 -10 0 -5 5 -10 12 -10
7 0 -5 17 -25 38 -34 34 -37 43 -37 93 0 52 2 56 41 86 27 21 58 34 92 39 29
4 55 9 60 10 4 1 14 2 23 3 29 2 10 35 -24 42 -32 7 -62 -9 -62 -32 0 -5 -24
-9 -52 -10 -40 0 -48 -3 -33 -9 14 -6 -5 -9 -58 -8 -43 0 -80 5 -83 9 -3 5
-20 9 -39 9 -25 0 -35 5 -40 20 -3 11 -13 20 -21 21 -61 4 -69 3 -69 -16 0
-16 12 -21 70 -31 39 -6 73 -9 78 -7 4 2 7 0 7 -6 0 -16 52 -38 83 -35 18 2
25 -1 21 -8 -4 -6 -8 -21 -9 -32 -1 -12 -5 -28 -8 -36 -18 -48 -25 -80 -17
-75 15 10 6 -206 -10 -238 l-15 -28 -842 -2 c-617 -1 -844 1 -847 9 -2 6 2 24
10 39 8 15 14 33 14 40 0 8 6 26 14 42 31 62 45 100 51 135 4 26 12 39 27 44
16 5 18 8 7 15 -10 6 -11 9 -1 9 8 0 12 20 12 66 0 55 -3 65 -15 60 -8 -3
-626 -7 -1373 -8 -746 -2 -1474 -5 -1617 -8 -152 -3 63 -6 517 -8 427 -1 779
-6 782 -10 4 -7 -51 -104 -154 -272 -5 -8 -19 -33 -30 -55 -12 -22 -33 -55
-46 -72 l-25 -33 -850 0 c-467 0 -849 4 -849 8 0 5 30 45 68 89 114 136 146
175 161 196 8 12 22 28 30 37 9 9 34 38 55 63 23 28 47 47 59 47 11 0 18 3 14
6 -3 4 -233 7 -509 8 l-503 1 -13 70 c-7 39 -26 139 -42 223 -37 190 -38 202
-6 202 21 0 24 6 30 50 6 48 -12 159 -33 198 -21 40 -81 344 -81 414 0 57 -6
85 -25 126 l-25 53 43 64 c52 80 168 221 267 329 41 45 103 119 137 166 88
120 113 150 127 150 27 0 86 91 86 132 0 14 3 28 7 32 7 6 31 90 33 109 1 23
-20 -2 -53 -62z m-1258 -901 c28 -11 57 -17 66 -14 8 4 15 1 15 -5 0 -17 -47
-24 -93 -15 -33 7 -43 14 -45 32 -4 27 -5 27 57 2z m15231 0 c0 -34 -127 -55
-138 -22 -2 7 2 10 10 7 8 -3 34 3 59 14 57 25 69 25 69 1z m-13506 -1379 c5
-7 -98 -141 -123 -161 -4 -3 -22 -25 -41 -50 -19 -25 -37 -47 -40 -50 -8 -8
-72 -83 -109 -128 l-35 -42 -262 0 -262 0 -6 43 c-11 75 -36 328 -36 363 l0
34 454 0 c255 0 457 -4 460 -9z m3323 -5 c2 -2 -3 -16 -12 -32 -8 -16 -15 -37
-15 -46 0 -9 -4 -20 -10 -23 -5 -3 -10 -16 -10 -28 0 -12 -7 -31 -15 -41 -8
-11 -15 -32 -15 -47 0 -15 -4 -30 -9 -34 -5 -3 -19 -36 -31 -74 -12 -38 -27
-74 -33 -79 -19 -15 -1692 -28 -1702 -13 -4 7 0 20 9 30 9 10 16 21 16 25 0 4
17 33 37 64 20 31 46 73 56 92 11 19 30 51 43 70 13 19 24 40 24 46 0 7 3 14
8 16 4 2 20 23 36 47 l28 44 796 -7 c438 -4 797 -8 799 -10z m6650 -3 c4 -10
9 -20 13 -23 7 -6 70 -109 70 -115 0 -3 17 -33 38 -67 21 -35 41 -70 45 -78 4
-8 23 -39 42 -69 19 -30 32 -58 29 -63 -3 -4 -384 -8 -848 -8 -959 0 -858 -11
-891 95 -11 33 -23 64 -27 70 -4 5 -8 16 -8 25 0 8 -7 28 -15 44 -8 15 -15 35
-15 43 0 8 -6 27 -14 41 -24 44 -45 109 -39 116 4 3 368 6 810 6 756 0 804 -1
810 -17z m2660 -30 c-4 -27 -11 -100 -17 -163 -6 -63 -15 -141 -21 -172 l-12
-58 -277 0 -277 0 -50 58 c-27 31 -80 95 -118 142 -38 47 -79 96 -91 110 -76
84 -94 106 -94 118 0 9 103 12 481 12 l482 0 -6 -47z m1393 39 c0 -36 -71 -53
-300 -71 -109 -9 -163 -19 -245 -46 -16 -5 -34 6 -75 44 -30 28 -58 51 -62 51
-5 0 -8 7 -8 15 0 13 45 15 345 15 190 0 345 -4 345 -8z m-15660 -63 c-12 -40
-46 -99 -58 -99 -5 0 -17 9 -27 20 -18 20 -18 21 35 70 30 27 55 48 57 47 1
-2 -2 -19 -7 -38z m403 -107 c57 -193 58 -180 -14 -225 -61 -37 -62 -38 -155
-35 -107 3 -104 -6 -29 106 22 33 65 109 95 170 30 61 57 111 60 111 3 1 22
-56 43 -127z m14400 -190 c20 -29 37 -57 37 -62 0 -6 -37 -10 -91 -10 -87 0
-94 2 -152 37 -34 20 -63 37 -64 38 -5 2 21 99 53 204 l36 113 71 -134 c40
-74 89 -157 110 -186z m230 253 c30 -29 33 -36 20 -46 -16 -14 -19 -11 -48 43
-27 49 -20 50 28 3z m-15285 -272 l44 -48 -93 -3 c-129 -4 -134 0 -75 54 27
24 56 44 64 44 9 0 36 -21 60 -47z m15585 -9 c18 -16 25 -30 19 -36 -5 -5 -43
-8 -86 -6 l-76 3 41 42 c45 47 50 46 102 -3z m-15443 -89 c73 -31 88 -31 172
-1 83 29 244 36 234 10 -11 -27 -84 -148 -133 -219 -48 -70 -49 -70 -88 -65
-22 2 -65 5 -95 5 -53 0 -54 -1 -64 -34 -6 -22 -6 -52 1 -90 6 -31 13 -65 15
-76 3 -20 -3 -20 -454 -23 -413 -3 -458 -1 -458 13 0 18 37 55 245 244 33 30
101 94 151 142 49 49 103 95 120 104 22 11 62 15 162 15 119 0 139 -3 192 -25z
m1355 15 c5 -8 -12 -31 -100 -139 -11 -13 -39 -45 -62 -70 -24 -25 -43 -49
-43 -52 0 -3 -12 -19 -26 -35 -25 -28 -91 -105 -126 -147 -10 -11 -18 -23 -18
-27 0 -4 -15 -15 -32 -23 -28 -13 -82 -15 -335 -13 -166 1 -304 4 -305 6 -2 3
-9 20 -15 37 -11 31 -9 35 33 83 52 57 244 212 277 222 12 4 50 12 85 19 73
14 117 40 149 89 12 19 27 41 33 48 13 15 475 18 485 2z m1760 0 c12 -4 12 -8
0 -30 -7 -14 -23 -43 -35 -65 -25 -49 -41 -75 -57 -93 -7 -7 -13 -18 -13 -23
0 -6 -17 -36 -37 -67 -38 -57 -44 -68 -79 -132 -10 -19 -27 -46 -37 -60 l-17
-25 -253 -5 c-138 -3 -548 -6 -909 -8 -648 -2 -657 -2 -663 18 -4 13 1 27 17
42 28 28 81 88 128 148 19 24 42 51 50 59 9 9 41 48 72 86 31 39 77 92 102
119 l46 48 835 -3 c460 -2 842 -6 850 -9z m8875 -12 c11 -12 29 -40 41 -62 12
-23 24 -43 28 -46 6 -5 32 -51 59 -105 8 -16 25 -43 37 -60 12 -16 25 -37 28
-45 4 -8 17 -31 28 -50 42 -69 58 -103 53 -112 -8 -13 -1792 -8 -1821 5 -13 6
-23 17 -23 26 0 14 -19 74 -40 126 -5 11 -11 29 -13 40 -3 11 -15 45 -27 75
-11 30 -30 82 -42 115 -11 33 -24 64 -29 70 -5 5 -9 15 -9 22 0 17 68 19 952
21 l758 1 20 -21z m1795 -23 c59 -68 71 -82 106 -127 34 -43 56 -69 94 -113
11 -13 36 -42 55 -66 19 -23 47 -55 62 -71 16 -16 35 -39 43 -51 33 -52 67
-50 -905 -45 l-901 4 -24 30 c-13 16 -24 33 -25 37 0 5 -11 23 -25 41 -14 18
-25 38 -25 44 0 6 -6 17 -13 24 -6 7 -21 30 -32 51 -11 20 -23 37 -27 37 -5 0
-8 5 -8 12 0 6 -20 43 -44 82 -75 120 -86 144 -73 150 7 2 393 4 860 3 l847
-2 35 -40z m563 13 c40 -76 133 -128 229 -128 23 0 59 -23 160 -104 71 -58
142 -121 157 -141 26 -33 27 -39 15 -68 -7 -18 -18 -35 -23 -39 -14 -10 -625
-8 -651 2 -26 10 -51 34 -100 95 -22 28 -44 55 -50 61 -5 6 -26 30 -45 54 -31
40 -89 107 -115 136 -5 6 -21 25 -35 43 -14 18 -37 47 -52 64 -15 18 -28 38
-28 45 0 9 59 12 260 12 l261 0 17 -32z m668 10 c64 -29 148 -30 189 -3 24 17
50 21 152 24 68 1 134 1 146 -3 12 -3 54 -36 93 -73 64 -61 159 -149 333 -309
31 -28 66 -59 79 -70 12 -10 22 -29 22 -41 l0 -22 -436 1 -436 2 7 25 c14 61
17 158 5 181 -12 22 -16 22 -88 16 -42 -3 -79 -11 -82 -16 -4 -6 -20 7 -36 27
-30 37 -174 268 -174 278 0 3 40 5 89 5 70 0 99 -5 137 -22z m-10121 -5 c-3
-10 -9 -30 -12 -46 -3 -15 -10 -30 -14 -33 -5 -3 -9 -13 -9 -22 0 -9 -7 -30
-15 -46 -8 -15 -15 -34 -15 -41 0 -7 -7 -26 -15 -41 -8 -16 -15 -39 -15 -51 0
-13 -4 -23 -10 -23 -5 0 -10 -9 -10 -21 0 -12 -6 -35 -14 -52 -8 -18 -17 -44
-20 -59 -4 -18 -14 -29 -29 -32 -46 -10 -1807 -15 -1812 -5 -4 5 0 20 7 33 7
13 24 43 37 67 13 24 27 46 31 49 3 3 9 12 13 20 4 8 11 22 17 30 33 51 150
250 150 255 0 3 6 12 13 20 10 12 142 14 871 15 813 0 858 -1 851 -17z m1772
-35 c-3 -29 -12 -111 -22 -183 -9 -71 -19 -157 -23 -190 l-7 -60 -909 -3
c-568 -1 -913 1 -919 7 -6 6 -4 19 7 35 9 14 16 32 16 40 0 9 6 30 14 48 8 18
22 53 31 78 10 25 21 54 25 65 5 11 16 45 26 75 9 30 23 69 31 87 7 17 13 36
13 42 0 8 242 11 861 11 l861 0 -5 -52z m1782 30 c4 -13 11 -68 14 -123 4 -55
11 -114 16 -131 5 -17 10 -71 12 -120 l4 -89 -910 0 -910 0 3 100 c2 55 10
122 18 149 8 27 14 80 14 117 0 37 4 79 10 93 l10 26 855 0 855 0 9 -22z
m1777 -5 c4 -16 9 -32 13 -38 10 -18 63 -169 68 -198 3 -15 9 -30 14 -33 5 -3
9 -13 9 -22 0 -9 7 -30 15 -46 8 -15 15 -35 15 -44 0 -8 7 -23 16 -33 9 -10
13 -26 10 -36 -6 -18 -40 -18 -908 -15 -497 1 -908 4 -914 6 -6 2 -16 42 -22
88 -29 207 -34 248 -39 321 l-5 77 861 0 861 0 6 -27z m4014 -549 c0 -7 6 -17
13 -21 7 -4 28 -28 47 -53 19 -25 49 -61 66 -80 17 -19 53 -62 80 -95 26 -33
50 -62 54 -65 4 -3 28 -32 54 -65 27 -33 64 -77 82 -97 19 -20 34 -42 34 -47
0 -7 -314 -12 -981 -13 -1023 -3 -1019 -3 -1019 37 0 8 -6 18 -13 22 -6 4 -27
37 -45 73 -19 36 -53 97 -77 135 -64 102 -68 108 -94 156 -13 24 -26 46 -30
49 -3 3 -15 21 -25 40 -11 19 -24 38 -30 42 -6 4 -7 11 -2 15 4 4 413 10 909
13 877 5 903 4 940 -14 20 -11 37 -25 37 -32z m1916 -12 c27 -26 94 -88 148
-137 55 -50 147 -136 205 -193 58 -57 125 -117 148 -135 23 -18 43 -38 43 -44
0 -10 -199 -13 -964 -13 -530 0 -971 -3 -980 -6 -16 -6 -33 9 -103 92 -22 27
-50 58 -60 69 -10 11 -32 38 -48 60 -16 22 -40 51 -54 65 -13 14 -57 66 -97
115 -40 50 -87 106 -103 125 -17 19 -31 41 -31 48 0 9 71 12 323 12 177 0 331
-3 343 -6 27 -7 50 -57 65 -139 11 -65 39 -115 64 -115 7 0 27 11 43 25 34 28
62 114 62 188 l0 47 448 2 c246 2 459 -1 473 -5 15 -5 49 -29 75 -55z m-16110
13 c8 -129 49 -215 103 -215 25 0 50 47 67 128 29 141 5 132 373 132 198 0
312 -4 316 -10 5 -8 -45 -77 -100 -136 -5 -6 -23 -28 -40 -49 -27 -35 -101
-122 -115 -135 -3 -3 -24 -27 -45 -55 -22 -27 -42 -52 -46 -55 -3 -3 -29 -34
-58 -70 -61 -74 -69 -80 -97 -75 -10 2 -450 4 -976 4 -760 1 -958 4 -957 14 0
6 28 36 62 66 34 30 125 113 202 186 125 117 221 206 310 288 l30 27 485 -2
484 -3 2 -40z m2753 36 c12 -8 11 -14 -5 -38 -10 -15 -24 -37 -30 -48 -6 -11
-21 -38 -33 -60 -12 -22 -31 -53 -42 -70 -10 -16 -22 -38 -25 -47 -4 -10 -10
-18 -14 -18 -4 0 -10 -8 -14 -17 -3 -10 -15 -31 -26 -48 -11 -16 -23 -37 -27
-45 -3 -8 -23 -42 -42 -75 -20 -33 -41 -69 -47 -80 -11 -20 -23 -20 -1003 -23
-851 -2 -991 0 -991 12 0 8 3 16 8 18 4 2 34 37 67 78 33 41 72 86 86 101 14
14 28 30 30 36 4 10 71 91 109 132 8 9 31 37 50 61 19 25 55 66 80 92 l44 48
906 0 c518 0 911 -4 919 -9z m1908 -5 c4 -3 -23 -75 -30 -82 -4 -4 -7 -17 -7
-28 0 -12 -6 -30 -14 -41 -7 -11 -16 -31 -19 -45 -6 -29 -26 -88 -38 -112 -5
-10 -9 -26 -9 -36 0 -10 -7 -27 -15 -38 -8 -10 -15 -28 -15 -40 0 -11 -7 -29
-15 -40 -8 -10 -15 -30 -15 -43 0 -14 -7 -33 -17 -43 -15 -17 -59 -18 -1000
-18 -625 0 -983 4 -983 10 0 5 25 50 55 100 30 50 55 95 55 100 0 6 4 10 10
10 5 0 12 11 16 25 3 14 10 25 15 25 5 0 9 4 9 10 0 9 127 223 163 274 l20 28
916 -7 c504 -4 917 -8 918 -9z m5690 5 c15 -8 61 -121 70 -173 3 -15 11 -33
19 -39 8 -6 14 -24 14 -40 0 -15 5 -31 10 -34 6 -3 10 -14 10 -23 0 -9 7 -30
15 -46 8 -15 15 -36 15 -45 0 -9 6 -25 13 -36 15 -22 37 -94 37 -119 0 -15
-78 -16 -982 -14 l-983 3 -11 35 c-7 20 -15 77 -19 129 -4 51 -11 107 -16 124
-5 18 -9 54 -9 82 -1 27 -7 81 -14 118 -10 50 -10 70 -2 73 6 2 405 5 886 7
481 1 888 3 903 4 16 2 36 -1 44 -6z m1902 0 c10 -6 26 -25 35 -43 9 -18 26
-46 37 -63 10 -16 22 -38 25 -47 4 -10 10 -18 14 -18 4 0 11 -11 14 -25 4 -14
11 -25 16 -25 6 0 10 -4 10 -10 0 -5 17 -38 38 -72 21 -35 41 -70 45 -78 4 -8
16 -28 27 -45 11 -16 23 -38 26 -47 4 -10 10 -18 15 -18 5 0 9 -6 9 -14 0 -7
7 -19 15 -26 8 -7 15 -19 15 -26 0 -20 -1957 -21 -1982 -1 -9 6 -18 23 -21 37
-5 27 -23 77 -44 127 -7 17 -13 38 -13 46 0 9 -4 19 -10 22 -5 3 -10 15 -10
27 0 11 -6 32 -14 46 -14 29 -26 61 -58 162 -12 36 -26 68 -32 73 -8 5 -7 10
3 16 20 13 1815 15 1840 2z m-5685 -10 c4 -5 1 -11 -4 -13 -6 -2 -15 -53 -20
-113 -5 -61 -13 -132 -19 -160 -5 -27 -10 -77 -11 -110 0 -33 -7 -82 -14 -108
l-12 -49 -978 -5 c-759 -5 -980 -3 -986 6 -9 15 -1 61 11 61 5 0 9 9 9 21 0
11 6 33 14 47 7 15 21 52 31 82 9 30 23 69 31 87 8 17 14 36 14 42 0 6 4 19 9
29 19 38 41 93 41 104 0 6 8 29 17 50 l17 38 922 0 c547 0 925 -4 928 -9z
m1907 -86 c4 -49 9 -97 13 -105 8 -20 28 -217 30 -300 l1 -65 -965 0 c-531 -1
-973 1 -982 3 -23 4 -24 78 -3 177 8 39 15 95 15 125 0 30 4 69 9 87 5 17 10
60 12 95 2 34 5 66 7 71 2 4 420 6 930 5 l927 -3 6 -90z m-6077 -517 c3 -14
-1 -28 -13 -39 -10 -9 -23 -31 -31 -48 -7 -17 -16 -31 -21 -31 -5 0 -9 -8 -9
-19 0 -10 -7 -24 -15 -31 -8 -7 -15 -19 -15 -26 0 -8 -4 -14 -10 -14 -5 0 -12
-11 -16 -25 -3 -14 -10 -25 -14 -25 -4 0 -11 -11 -14 -25 -4 -14 -11 -25 -16
-25 -6 0 -10 -4 -10 -10 0 -5 -25 -50 -55 -100 -30 -50 -55 -95 -55 -100 0 -6
-3 -10 -8 -10 -7 0 -16 -15 -46 -75 -8 -16 -24 -42 -36 -57 l-21 -28 -1069 0
c-588 0 -1071 3 -1073 8 -8 13 8 40 53 89 25 26 61 68 80 92 19 24 46 56 59
70 13 14 44 53 70 86 25 33 55 69 66 80 12 11 45 49 74 85 92 114 155 182 176
190 11 5 457 8 991 9 l972 0 6 -21z m10222 2 c11 -8 34 -37 50 -65 16 -27 34
-59 41 -70 7 -11 17 -29 22 -40 6 -11 62 -105 126 -209 63 -104 115 -192 115
-197 0 -4 6 -14 13 -21 21 -23 47 -75 40 -82 -3 -3 -107 -6 -230 -6 -192 0
-223 2 -223 15 0 14 -93 15 -817 12 -450 -2 -835 -7 -855 -12 -31 -6 -38 -4
-38 8 0 9 -6 28 -14 44 -8 15 -22 53 -31 83 -9 30 -23 69 -30 85 -7 17 -18 48
-25 70 -7 22 -19 54 -27 72 -7 17 -13 36 -13 42 0 6 -7 27 -16 48 -23 53 -31
75 -38 98 -2 11 -12 39 -20 62 -9 23 -13 49 -10 57 5 12 143 14 967 15 529 1
963 4 965 5 6 7 27 1 48 -14z m2067 -21 c80 -89 94 -106 103 -121 5 -9 25 -34
44 -55 20 -21 60 -67 89 -103 29 -36 72 -85 95 -110 24 -25 51 -58 61 -75 19
-29 60 -77 118 -135 15 -16 27 -38 27 -49 l0 -21 -1072 2 -1073 3 -36 54 c-20
30 -51 83 -70 118 -18 34 -37 63 -41 63 -4 0 -8 4 -8 10 0 5 -31 61 -70 125
-38 64 -70 120 -70 125 0 6 -4 10 -9 10 -5 0 -13 10 -17 23 -3 12 -16 35 -28
52 -21 30 -40 60 -52 83 -3 6 -4 19 0 27 5 14 115 15 992 13 l986 -3 31 -36z
m-10253 -6 c0 -21 -7 -47 -15 -57 -8 -11 -15 -29 -15 -41 0 -12 -3 -25 -6 -28
-10 -9 -43 -109 -44 -128 0 -9 -7 -22 -15 -29 -8 -7 -15 -23 -15 -35 0 -13 -7
-36 -15 -51 -8 -16 -15 -37 -15 -46 0 -9 -4 -20 -10 -23 -5 -3 -10 -14 -10
-24 0 -10 -7 -32 -15 -47 -8 -16 -15 -37 -15 -46 0 -9 -4 -19 -9 -22 -5 -3
-12 -21 -15 -40 -8 -40 -19 -46 -92 -46 -34 0 -53 -4 -49 -10 3 -5 25 -10 48
-10 52 0 65 -8 63 -39 -2 -35 21 -37 29 -3 3 17 14 32 25 35 10 3 501 2 1091
-1 l1071 -5 -6 -36 c-4 -20 -9 -69 -13 -108 -6 -69 -5 -73 14 -73 26 0 34 23
42 130 l6 85 818 3 c654 2 817 0 811 -10 -6 -10 -4 -11 7 0 8 7 42 12 87 12
56 0 71 -3 66 -12 -6 -10 -4 -10 7 0 9 9 63 12 195 12 205 0 189 7 193 -83 1
-20 5 -57 10 -82 5 -25 5 -47 1 -50 -4 -2 -99 -4 -211 -4 -112 0 -208 0 -214
-1 -5 -1 -14 -2 -19 -1 -10 2 -255 2 -337 0 -31 -1 -62 2 -68 5 -6 4 -17 4
-23 -1 -17 -10 -138 -11 -138 -1 0 4 -4 8 -10 8 -5 0 -10 -6 -10 -13 0 -10
-12 -12 -50 -7 -29 4 -53 2 -57 -3 -3 -5 -31 -7 -64 -3 -37 3 -60 2 -65 -5 -4
-8 -9 -7 -15 2 -6 10 -9 11 -9 2 0 -7 -9 -13 -20 -13 -11 0 -20 6 -20 13 0 8
-2 9 -8 1 -8 -14 -62 -16 -62 -3 0 23 -20 5 -21 -18 -1 -17 -3 -21 -6 -10 -2
9 -8 17 -13 17 -5 0 -15 3 -24 6 -11 4 -16 1 -16 -10 0 -19 -16 -22 -23 -3 -3
9 -10 9 -32 -3 -22 -12 -29 -12 -32 -3 -4 10 -8 9 -20 -2 -13 -13 -13 -17 1
-31 9 -8 16 -11 16 -5 0 6 9 11 19 11 17 0 19 -8 19 -69 0 -81 9 -121 23 -100
6 10 9 11 9 2 0 -9 16 -13 45 -13 29 0 45 -4 45 -12 0 -9 4 -8 11 2 8 11 12
12 16 3 2 -7 9 -13 14 -13 6 0 7 5 4 10 -3 5 -1 10 5 10 6 0 9 4 6 8 -3 5 1 9
9 9 8 0 14 -3 13 -6 -3 -27 4 -30 21 -10 l20 24 -6 -22 c-4 -18 -1 -23 13 -23
16 0 17 2 4 10 -12 8 -11 10 7 10 12 0 25 -5 28 -10 10 -16 25 -12 19 5 -5 11
-2 13 10 9 9 -3 16 -10 16 -15 0 -5 269 -10 621 -11 l622 -3 4 -57 4 -58 -328
0 c-373 0 -755 -9 -988 -21 -124 -7 183 -14 715 -17 694 -3 633 6 628 -102
l-3 -65 -1160 -3 c-638 -1 -1171 0 -1184 3 -23 6 -24 8 -18 86 4 60 2 79 -8
79 -8 0 -14 -24 -19 -72 -3 -39 -11 -77 -17 -85 -10 -11 -220 -13 -1188 -11
-1126 3 -1176 4 -1179 21 -2 10 3 33 12 52 9 18 16 40 16 48 0 9 5 19 10 22 6
3 10 16 10 29 0 12 5 27 12 34 9 9 9 15 0 24 -16 16 -32 -5 -32 -39 0 -12 -4
-24 -9 -27 -4 -3 -11 -24 -15 -46 -3 -22 -11 -40 -16 -40 -6 0 -10 -14 -10
-30 0 -24 -6 -33 -26 -40 -16 -6 -457 -10 -1190 -10 -1017 0 -1165 2 -1170 15
-3 8 1 22 10 30 9 9 16 23 16 31 0 8 4 14 9 14 5 0 11 8 15 17 3 10 15 32 26
48 11 17 29 46 40 65 11 19 29 49 40 65 10 17 29 49 41 73 13 23 26 42 31 42
4 0 8 9 8 20 0 10 6 23 13 27 11 7 24 28 60 96 7 12 29 47 48 78 20 30 40 65
43 77 4 12 11 22 16 22 4 0 11 8 14 18 8 21 28 55 45 76 11 13 37 16 157 16
185 0 194 18 12 22 -118 3 -133 5 -130 20 1 9 32 64 67 122 36 58 65 109 65
112 0 3 11 20 24 37 13 18 33 50 45 72 12 22 30 54 41 70 11 17 23 38 26 48 4
9 10 17 15 17 5 0 9 6 9 14 0 7 7 19 15 26 8 7 15 21 15 31 0 11 4 19 9 19 5
0 19 19 31 42 12 23 29 48 38 55 13 10 225 12 1000 13 l982 0 0 -37z m1090 27
c796 0 959 -2 963 -14 3 -7 -1 -46 -9 -87 -8 -41 -14 -96 -14 -124 -1 -27 -5
-70 -10 -95 -5 -25 -14 -90 -20 -145 -13 -123 -25 -203 -31 -209 -9 -8 -2140
-13 -2145 -5 -5 9 9 60 33 116 7 17 13 38 13 46 0 9 5 19 10 22 6 3 10 14 10
23 0 9 7 30 15 46 8 15 15 36 15 45 0 9 7 25 15 35 8 11 15 27 15 37 0 9 7 30
15 45 8 16 15 37 15 46 0 9 5 20 10 23 6 3 10 16 10 29 0 12 7 31 15 42 8 10
15 29 15 41 0 12 10 38 22 58 19 33 25 36 51 31 16 -3 460 -6 987 -6z m5058
-18 c17 -26 53 -119 59 -155 3 -15 9 -30 14 -33 5 -3 9 -13 9 -22 0 -9 7 -30
15 -46 8 -15 15 -36 15 -45 0 -10 7 -26 15 -37 8 -10 15 -27 15 -36 0 -16 19
-67 41 -110 5 -10 9 -26 9 -36 0 -9 6 -26 14 -37 7 -11 17 -38 20 -60 8 -46
12 -44 -99 -43 -33 0 -69 0 -80 0 -67 -2 -175 -2 -458 1 -174 1 -317 0 -317
-3 0 -3 -34 -3 -76 0 -41 3 -77 4 -78 2 -5 -5 -1017 -2 -1026 3 -10 6 -19 57
-30 184 -5 57 -14 118 -20 134 -5 17 -10 60 -10 96 0 36 -8 100 -17 143 -12
57 -14 84 -6 100 l10 23 984 -2 c962 -2 984 -2 997 -21z m-2049 4 c6 -7 15
-64 21 -127 5 -63 14 -130 20 -149 5 -19 10 -64 10 -100 0 -36 4 -79 9 -97 12
-41 18 -180 8 -189 -4 -4 -29 -7 -55 -6 -26 2 -504 4 -1062 5 l-1015 2 3 100
c2 55 8 107 13 116 4 9 11 54 14 100 4 46 10 104 15 129 5 25 12 80 14 123 3
44 10 85 17 93 17 21 1971 21 1988 0z m316 -717 c-4 -5 -1 -9 4 -9 6 0 11 5
11 10 0 6 32 10 76 10 57 0 73 -3 68 -12 -6 -10 -5 -10 8 0 15 12 122 14 593
12 94 -1 175 -1 180 -1 6 0 144 1 308 3 237 2 296 0 292 -10 -3 -10 0 -10 16
-2 12 7 88 11 187 12 272 1 269 1 208 -40 -32 -22 -42 -23 -198 -21 l-165 1
-119 -78 -119 -79 -720 -2 c-396 -2 -735 0 -752 3 -30 4 -33 8 -33 39 0 19 -3
36 -8 39 -4 2 -9 34 -10 70 -3 58 -1 66 15 66 15 0 16 -2 3 -11 -12 -9 -11 -9
5 -3 23 9 136 21 148 16 4 -2 5 -8 2 -13z m4216 3 c8 -10 18 -25 21 -33 3 -9
23 -42 44 -75 47 -71 70 -111 86 -144 7 -14 18 -31 25 -38 7 -7 13 -20 13 -28
0 -8 4 -14 8 -14 5 0 18 -19 31 -42 12 -24 31 -56 42 -73 10 -16 22 -38 25
-47 4 -10 10 -18 14 -18 4 0 10 -8 14 -17 3 -10 15 -31 26 -48 11 -16 23 -37
27 -45 3 -8 9 -17 13 -20 3 -3 17 -27 30 -53 14 -26 33 -57 44 -68 14 -16 16
-23 7 -32 -16 -16 -2332 -23 -2361 -7 -11 6 -20 19 -20 29 0 10 -7 32 -15 47
-8 16 -15 37 -15 46 0 9 -4 20 -10 23 -5 3 -10 16 -10 29 0 12 -7 31 -15 42
-8 10 -15 34 -15 51 0 31 7 37 103 99 56 37 143 93 192 125 l91 59 557 0 c488
0 557 2 557 15 0 13 -70 15 -572 15 -457 0 -575 -3 -587 -13 -37 -31 -349
-227 -361 -227 -7 0 -10 3 -7 6 4 4 0 19 -7 33 -7 14 -18 41 -24 59 l-11 33
127 83 c70 45 161 105 202 132 l75 49 583 -3 582 -4 0 46 0 46 238 0 c216 0
239 -2 253 -18z m2236 -19 c19 -20 52 -59 73 -87 21 -28 59 -73 84 -101 25
-27 46 -53 46 -57 0 -5 17 -25 38 -46 20 -20 51 -56 67 -78 17 -23 59 -74 95
-114 36 -40 72 -83 80 -96 9 -13 38 -47 66 -76 73 -78 96 -112 82 -126 -9 -9
-309 -12 -1179 -12 l-1168 0 -20 29 c-12 16 -21 34 -21 40 0 7 -7 14 -15 17
-8 4 -15 13 -15 21 0 8 -11 29 -25 47 -14 18 -25 38 -25 44 0 6 -6 17 -12 24
-13 14 -23 30 -59 96 -11 20 -29 51 -40 67 -10 17 -29 49 -41 73 -12 23 -26
42 -30 42 -4 0 -8 5 -8 11 0 10 -33 68 -87 154 -7 11 -22 38 -34 60 -12 22
-25 42 -29 45 -11 8 -20 41 -14 51 3 5 446 9 1081 9 l1076 0 34 -37z m-8044
-263 c3 -11 1 -18 -4 -14 -5 3 -9 12 -9 20 0 20 7 17 13 -6z m54 -17 c-3 -10
-5 -4 -5 12 0 17 2 24 5 18 2 -7 2 -21 0 -30z m-148 -26 c-11 -12 -16 -12 -27
0 -11 11 -12 16 -1 29 11 13 14 13 27 0 12 -12 12 -17 1 -29z m128 -9 c-3 -7
-5 -2 -5 12 0 14 2 19 5 13 2 -7 2 -19 0 -25z m50 10 c-3 -8 -6 -5 -6 6 -1 11
2 17 5 13 3 -3 4 -12 1 -19z m3639 -55 c7 -10 14 -27 14 -39 0 -11 7 -29 15
-40 8 -10 15 -22 15 -26 0 -4 -38 -32 -85 -63 l-85 -55 -1054 0 -1053 0 -7 38
c-3 20 -9 47 -12 60 l-6 22 1025 0 1026 0 63 41 c35 23 74 49 88 59 32 24 40
24 56 3z m-3773 -6 c4 -10 -3 -12 -24 -9 -16 2 -29 8 -29 13 0 14 47 10 53 -4z
m-3 -39 c0 -13 -43 -9 -62 6 -28 21 -21 24 22 13 22 -6 40 -15 40 -19z m3857
-153 c8 -22 17 -52 20 -68 3 -15 9 -30 14 -33 5 -3 9 -12 9 -21 0 -8 7 -30 16
-49 33 -70 131 -65 -1167 -64 -745 1 -1179 5 -1191 11 -15 8 -18 22 -18 84 l0
75 1058 0 1059 0 84 55 c46 30 88 54 93 52 4 -1 15 -21 23 -42z"/>
<path d="M10065 1710 c-3 -6 1 -7 9 -4 18 7 21 14 7 14 -6 0 -13 -4 -16 -10z"/>
<path d="M9620 1510 c0 -5 5 -10 10 -10 6 0 10 5 10 10 0 6 -4 10 -10 10 -5 0
-10 -4 -10 -10z"/>
<path d="M9157 1464 c-3 -4 0 -13 8 -21 10 -10 13 -27 8 -58 -4 -31 -2 -45 6
-45 10 0 15 13 12 32 0 4 -2 28 -3 53 -1 41 -13 56 -31 39z"/>
<path d="M9133 1400 c-2 -22 2 -40 7 -40 6 0 10 18 10 40 0 52 -14 52 -17 0z"/>
<path d="M9219 1385 c-9 -32 0 -48 17 -31 16 16 19 30 5 21 -5 -3 -11 3 -13
12 -3 16 -4 16 -9 -2z"/>
<path d="M9170 1310 c0 -14 5 -32 10 -40 8 -12 10 -10 10 10 0 14 -5 32 -10
40 -8 12 -10 10 -10 -10z"/>
<path d="M6195 1293 c-3 -15 -13 -41 -21 -57 -10 -19 -12 -32 -5 -39 22 -22
45 20 54 97 3 31 -22 30 -28 -1z"/>
<path d="M9222 1292 c1 -18 6 -32 10 -32 5 0 5 12 2 28 -10 39 -15 41 -12 4z"/>
<path d="M9250 1270 c0 -5 5 -10 10 -10 6 0 10 5 10 10 0 6 -4 10 -10 10 -5 0
-10 -4 -10 -10z"/>
<path d="M8511 1226 c-6 -7 -14 -34 -17 -60 -6 -44 -6 -46 19 -46 22 0 26 5
31 43 10 64 -6 95 -33 63z"/>
<path d="M9468 1093 c7 -3 16 -2 19 1 4 3 -2 6 -13 5 -11 0 -14 -3 -6 -6z"/>
<path d="M5881 5873 c-1 -6 7 -26 17 -43 13 -25 14 -34 4 -37 -6 -3 -9 -9 -6
-14 3 -6 -2 -19 -11 -29 -13 -14 -15 -27 -9 -52 l7 -33 8 29 c5 16 6 33 4 36
-3 4 2 20 9 36 18 37 31 81 21 72 -8 -8 -29 10 -38 32 -3 8 -6 10 -6 3z"/>
<path d="M6096 5852 c-3 -5 1 -9 9 -9 8 0 12 4 9 9 -3 4 -7 8 -9 8 -2 0 -6 -4
-9 -8z"/>
<path d="M5849 5842 c-11 -5 -14 -13 -10 -25 6 -17 8 -16 19 7 6 14 11 26 9
25 -1 0 -9 -3 -18 -7z"/>
<path d="M7220 5835 c-10 -12 -10 -20 -1 -38 11 -21 11 -21 8 -1 -3 12 0 29 5
38 11 20 5 21 -12 1z"/>
<path d="M5667 5820 c3 -11 9 -20 14 -20 11 0 11 3 3 24 -9 23 -23 20 -17 -4z"/>
<path d="M6047 5818 c-3 -12 -3 -28 2 -35 5 -11 10 -7 19 12 12 26 9 45 -7 45
-5 0 -11 -10 -14 -22z"/>
<path d="M6274 5832 c-6 -4 -13 -15 -17 -24 -5 -15 0 -18 31 -18 45 0 67 13
59 34 -7 17 -53 22 -73 8z"/>
<path d="M6551 5833 c0 -5 4 -17 9 -28 8 -18 9 -17 9 8 1 15 -3 27 -9 27 -5 0
-10 -3 -9 -7z"/>
<path d="M6719 5837 c-1 -1 -3 -20 -4 -42 -2 -34 -1 -37 8 -17 7 16 16 21 30
16 13 -4 17 -2 13 5 -4 6 -2 11 4 11 6 0 15 -10 20 -22 9 -22 9 -22 9 3 1 15
-5 31 -11 36 -12 8 -66 17 -69 10z"/>
<path d="M7057 5820 c3 -11 7 -20 9 -20 2 0 4 9 4 20 0 11 -4 20 -9 20 -5 0
-7 -9 -4 -20z"/>
<path d="M7283 5820 c1 -11 5 -20 9 -20 4 0 8 9 8 20 0 11 -4 20 -9 20 -6 0
-9 -9 -8 -20z"/>
<path d="M7664 5824 c-2 -7 -6 -20 -8 -28 -3 -8 -13 -12 -23 -10 -10 3 -29 1
-43 -5 -23 -9 -22 -10 13 -10 21 -1 50 7 64 17 19 12 25 13 19 3 -7 -11 -4
-13 15 -8 13 4 32 7 42 7 21 0 23 35 2 44 -8 3 -15 1 -15 -4 0 -5 -13 -5 -31
0 -23 7 -31 6 -35 -6z"/>
<path d="M8342 5828 c-22 -22 -13 -38 21 -38 34 0 77 23 66 35 -13 12 -75 15
-87 3z"/>
<path d="M8617 5822 c3 -12 9 -25 14 -28 14 -8 11 10 -6 32 -13 18 -14 18 -8
-4z"/>
<path d="M8785 5830 c3 -5 8 -10 11 -10 2 0 4 5 4 10 0 6 -5 10 -11 10 -5 0
-7 -4 -4 -10z"/>
<path d="M9931 5824 c0 -11 3 -14 6 -6 3 7 2 16 -1 19 -3 4 -6 -2 -5 -13z"/>
<path d="M8996 5813 c-6 -14 -5 -15 5 -6 7 7 10 15 7 18 -3 3 -9 -2 -12 -12z"/>
<path d="M9211 5808 c0 -13 3 -18 5 -11 3 7 13 9 22 5 16 -5 16 -5 0 11 -22
23 -28 21 -27 -5z"/>
<path d="M9254 5823 c10 -10 46 -11 46 -1 0 4 -12 8 -27 8 -14 0 -23 -3 -19
-7z"/>
<path d="M10872 5806 c2 -25 18 -26 18 -1 0 7 8 16 18 18 10 3 7 5 -10 6 -24
1 -27 -3 -26 -23z"/>
<path d="M10935 5820 c3 -5 10 -10 16 -10 5 0 9 5 9 10 0 6 -7 10 -16 10 -8 0
-12 -4 -9 -10z"/>
<path d="M12440 5820 c0 -5 5 -10 11 -10 5 0 7 5 4 10 -3 6 -8 10 -11 10 -2 0
-4 -4 -4 -10z"/>
<path d="M12670 5821 c0 -5 5 -13 10 -16 6 -3 10 -2 10 4 0 5 -4 13 -10 16 -5
3 -10 2 -10 -4z"/>
<path d="M5862 5785 c0 -16 2 -22 5 -12 2 9 2 23 0 30 -3 6 -5 -1 -5 -18z"/>
<path d="M10930 5800 c8 -5 20 -10 25 -10 6 0 3 5 -5 10 -8 5 -19 10 -25 10
-5 0 -3 -5 5 -10z"/>
<path d="M9270 5796 c0 -2 7 -7 16 -10 8 -3 12 -2 9 4 -6 10 -25 14 -25 6z"/>
<path d="M7278 5783 c7 -3 16 -2 19 1 4 3 -2 6 -13 5 -11 0 -14 -3 -6 -6z"/>
<path d="M8506 5711 c-10 -11 -37 -21 -69 -24 -100 -11 -113 -17 -104 -41 4
-11 18 -15 45 -13 27 1 38 6 35 14 -3 7 -9 10 -14 7 -5 -3 -9 0 -9 5 0 12 3
12 67 14 23 0 40 3 38 6 -3 2 5 15 17 28 12 13 19 23 16 23 -3 0 -12 -8 -22
-19z"/>
<path d="M8820 5720 c0 -8 5 -22 10 -30 9 -13 10 -13 10 0 0 8 -5 22 -10 30
-9 13 -10 13 -10 0z"/>
<path d="M6423 5709 c-5 -5 -43 -15 -84 -22 -64 -11 -74 -16 -77 -34 -3 -20 1
-22 42 -21 42 0 51 7 47 31 -1 7 20 10 56 7 13 -1 31 5 42 12 19 13 19 14 2
25 -12 8 -22 8 -28 2z m22 -8 c3 -5 2 -12 -3 -15 -5 -3 -9 1 -9 9 0 17 3 19
12 6z"/>
<path d="M6011 5694 c0 -11 3 -14 6 -6 3 7 2 16 -1 19 -3 4 -6 -2 -5 -13z"/>
<path d="M8524 5694 c-18 -14 -18 -15 4 -4 12 6 22 13 22 15 0 8 -5 6 -26 -11z"/>
<path d="M7217 5683 c-13 -13 -7 -51 9 -57 14 -5 15 -4 4 9 -7 9 -8 15 -2 15
6 0 12 7 14 16 3 14 6 14 24 -3 11 -10 19 -24 16 -32 -3 -8 0 -11 7 -7 6 4 11
20 11 37 0 27 -3 29 -38 29 -21 0 -42 -3 -45 -7z"/>
<path d="M5721 5664 c0 -11 3 -14 6 -6 3 7 2 16 -1 19 -3 4 -6 -2 -5 -13z"/>
<path d="M7690 5671 c-44 -12 -31 -36 20 -36 39 0 45 3 48 23 4 24 -16 28 -68
13z"/>
<path d="M10870 5656 c0 -17 9 -27 30 -36 17 -7 30 -18 30 -25 0 -6 9 -20 21
-31 21 -19 21 -18 -1 19 -12 20 -26 37 -32 37 -5 0 -7 4 -3 10 8 12 -16 50
-32 50 -7 0 -13 -11 -13 -24z m37 -12 c-3 -3 -12 -4 -19 -1 -8 3 -5 6 6 6 11
1 17 -2 13 -5z"/>
<path d="M13371 5667 c-1 -10 -5 -15 -11 -12 -6 4 -7 -1 -3 -11 6 -15 7 -15
15 0 5 9 7 22 4 29 -2 7 -5 4 -5 -6z"/>
<path d="M13290 5656 c-8 -10 -7 -15 4 -19 11 -4 13 -1 9 11 -6 15 -5 15 10 3
9 -7 17 -9 17 -3 0 16 -28 22 -40 8z"/>
<path d="M9107 5549 c18 -18 35 -31 37 -28 3 3 -12 18 -32 33 l-37 29 32 -34z"/>
<path d="M6460 5560 c0 -5 -6 -10 -14 -10 -7 0 -19 -7 -26 -15 -9 -10 -9 -15
-1 -15 6 0 11 5 11 11 0 5 4 8 9 5 4 -3 16 3 26 14 10 12 13 20 7 20 -7 0 -12
-4 -12 -10z"/>
<path d="M8232 5545 c15 -16 29 -27 31 -24 3 2 -10 15 -27 28 l-31 24 27 -28z"/>
<path d="M6150 5552 c0 -4 10 -13 23 -21 22 -14 22 -14 3 8 -20 22 -26 25 -26
13z"/>
<path d="M8501 5540 c-13 -11 -19 -20 -14 -20 6 0 18 9 28 20 23 25 17 25 -14
0z"/>
<path d="M9380 5539 c0 -5 5 -7 10 -4 6 3 10 8 10 11 0 2 -4 4 -10 4 -5 0 -10
-5 -10 -11z"/>
<path d="M7765 5530 c-3 -5 -39 -11 -78 -11 -52 -1 -63 -3 -37 -8 19 -3 80 -4
135 -1 77 3 87 5 42 8 -33 2 -55 7 -52 13 4 5 4 9 1 9 -3 0 -8 -4 -11 -10z"/>
<path d="M10175 5530 c-3 -5 1 -10 9 -10 9 0 16 5 16 10 0 6 -4 10 -9 10 -6 0
-13 -4 -16 -10z"/>
<path d="M5800 5511 c29 -17 120 -18 120 -1 0 6 -29 10 -67 10 -44 0 -63 -4
-53 -9z"/>
<path d="M6220 5510 c36 -11 152 -11 170 0 10 7 -19 9 -90 9 -68 -1 -96 -4
-80 -9z"/>
<path d="M6580 5510 c18 -12 78 -12 105 0 14 6 -2 9 -50 9 -49 1 -65 -2 -55
-9z"/>
<path d="M6820 5510 c36 -11 92 -11 110 0 10 7 -8 9 -60 9 -53 -1 -68 -3 -50
-9z"/>
<path d="M7099 5508 c22 -6 47 -6 70 0 33 9 29 10 -34 10 -62 0 -66 -1 -36
-10z"/>
<path d="M7338 5509 c22 -7 43 -7 60 0 23 8 17 9 -33 9 -55 0 -57 -1 -27 -9z"/>
<path d="M8338 5513 c23 -2 61 -2 85 0 23 2 4 4 -43 4 -47 0 -66 -2 -42 -4z"/>
<path d="M8783 5513 c15 -2 37 -2 50 0 12 2 0 4 -28 4 -27 0 -38 -2 -22 -4z"/>
<path d="M9243 5513 c15 -2 39 -2 55 0 15 2 2 4 -28 4 -30 0 -43 -2 -27 -4z"/>
<path d="M9613 5513 c31 -2 83 -2 115 0 31 2 5 3 -58 3 -63 0 -89 -1 -57 -3z"/>
<path d="M10508 5513 c6 -2 18 -2 25 0 6 3 1 5 -13 5 -14 0 -19 -2 -12 -5z"/>
<path d="M7583 4976 c3 -17 10 -47 15 -66 9 -32 10 -30 11 31 1 54 -2 66 -15
66 -12 0 -15 -8 -11 -31z"/>
<path d="M6020 4990 c-24 -6 -25 -8 -25 -100 l0 -95 45 0 c42 0 45 2 48 28 3
20 -1 27 -13 27 -13 0 -16 -6 -11 -25 5 -21 3 -25 -15 -25 -19 0 -56 27 -52
39 1 3 10 8 20 12 17 7 17 8 1 8 -10 1 -18 5 -18 11 0 5 7 7 15 4 8 -4 15 -1
15 5 0 6 -8 11 -17 12 -15 0 -15 2 2 9 l20 9 -20 0 c-15 1 -17 3 -7 10 8 4 14
12 15 17 1 5 5 8 10 7 4 -2 7 3 7 10 0 8 4 7 10 -3 7 -11 10 -11 10 -2 0 7 5
10 10 7 6 -4 8 -10 5 -15 -3 -5 30 -8 72 -7 68 1 78 -1 77 -16 -1 -9 3 -17 8
-17 6 0 7 11 4 26 -5 17 -3 23 4 19 5 -3 10 -19 10 -35 0 -22 -4 -28 -15 -24
-13 5 -15 -8 -15 -85 0 -89 5 -102 27 -80 9 9 23 2 56 -25 43 -35 49 -37 126
-39 45 -1 81 2 81 6 0 5 10 5 21 2 15 -5 19 -4 14 4 -4 8 -39 11 -105 10 -103
-3 -101 -3 -160 49 -26 22 -26 24 -22 132 4 97 3 110 -12 110 -9 0 -16 -4 -16
-10 0 -6 -28 -10 -64 -10 -55 0 -66 3 -71 19 -6 21 -38 30 -75 21z m221 -263
c-8 -8 -11 -3 -11 19 1 25 2 27 11 11 8 -14 8 -22 0 -30z"/>
<path d="M6408 4990 c-14 -9 -20 -38 -7 -42 2 -1 23 2 47 6 34 5 43 10 40 24
-4 20 -54 27 -80 12z"/>
<path d="M6693 4969 c8 -21 13 -26 15 -14 5 21 -5 45 -17 45 -5 0 -4 -13 2
-31z"/>
<path d="M6857 4993 c-2 -5 -4 -26 -4 -48 0 -25 1 -30 4 -13 6 36 33 40 60 8
l23 -25 0 38 c0 43 -21 58 -52 38 -12 -7 -17 -8 -13 -2 3 6 2 11 -4 11 -5 0
-12 -3 -14 -7z"/>
<path d="M7254 4966 c-6 -37 0 -56 19 -56 7 0 6 4 -3 10 -11 7 -11 10 -2 10 7
0 17 -10 22 -22 7 -18 9 -10 9 35 1 50 -1 57 -19 57 -14 0 -21 -9 -26 -34z"/>
<path d="M7431 4938 c1 -35 3 -55 6 -45 2 9 9 15 14 12 5 -4 9 -2 9 4 0 5 -6
12 -12 15 -7 4 -4 5 8 2 22 -3 27 10 18 52 -3 14 -12 22 -24 22 -18 0 -20 -6
-19 -62z"/>
<path d="M7750 4986 c-29 -29 8 -46 68 -30 23 7 31 33 10 36 -41 5 -70 2 -78
-6z"/>
<path d="M8384 4988 c-3 -4 -3 -12 0 -17 4 -5 0 -11 -6 -14 -19 -6 54 -7 75
-1 24 8 21 33 -5 38 -32 7 -58 4 -64 -6z"/>
<path d="M8902 4984 c1 -9 9 -19 16 -22 9 -3 13 2 10 14 -1 9 -9 19 -16 22 -9
3 -13 -2 -10 -14z"/>
<path d="M9835 4992 c-3 -3 3 -11 13 -18 16 -12 16 -12 -2 -11 -10 1 -20 -4
-22 -11 -1 -7 0 -8 3 -2 2 5 9 7 14 4 6 -3 5 -12 -3 -22 -7 -10 0 -6 16 8 46
41 50 56 15 56 -16 0 -31 -2 -34 -4z"/>
<path d="M10273 4993 c-7 -2 -13 -13 -13 -24 0 -16 6 -18 41 -15 47 5 54 9 46
31 -6 14 -47 19 -74 8z"/>
<path d="M12637 4993 c-4 -3 -7 -11 -7 -17 0 -6 5 -4 10 4 6 10 10 11 10 3 0
-7 5 -13 10 -13 6 0 10 7 10 15 0 15 -21 21 -33 8z"/>
<path d="M12812 4973 c-1 -19 1 -24 7 -14 5 7 14 10 21 6 8 -5 11 -1 8 11 -6
31 -33 28 -36 -3z"/>
<path d="M13185 4990 c-4 -6 -13 -9 -21 -6 -16 6 -44 -3 -44 -14 0 -4 12 -5
26 -2 17 3 25 1 21 -5 -4 -6 3 -8 18 -5 27 5 29 10 16 31 -6 10 -10 10 -16 1z"/>
<path d="M9060 4965 c0 -20 5 -25 25 -25 14 0 25 5 25 11 0 6 -7 9 -15 5 -22
-8 -18 2 6 15 17 8 20 8 14 -1 -5 -9 -1 -10 15 -5 17 5 21 4 15 -6 -6 -11 -5
-11 5 -2 21 19 1 33 -46 33 -40 0 -44 -2 -44 -25z"/>
<path d="M9429 4978 c-1 -7 -1 -16 0 -20 1 -8 -45 -12 -79 -9 -12 2 -13 0 -1
-7 11 -8 10 -12 -5 -21 -11 -6 -14 -11 -8 -11 6 0 14 3 18 7 4 4 26 12 49 19
23 6 51 14 62 19 17 6 17 5 5 -5 -12 -9 -9 -10 15 -5 31 7 47 23 39 37 -9 13
-94 9 -95 -4z"/>
<path d="M10710 4960 c0 -20 5 -30 15 -30 12 0 14 7 9 27 -6 22 -4 25 10 20
10 -4 24 -7 33 -7 12 0 12 -2 -2 -16 -9 -9 -14 -19 -11 -21 3 -3 12 2 21 11
27 26 11 46 -35 46 -38 0 -40 -2 -40 -30z"/>
<path d="M11390 4965 c0 -14 5 -25 10 -25 6 0 10 11 10 25 0 14 -4 25 -10 25
-5 0 -10 -11 -10 -25z"/>
<path d="M11433 4984 c-16 -7 -17 -34 -2 -34 5 0 8 4 5 9 -7 11 22 23 36 15 7
-5 4 -12 -8 -21 -19 -14 -19 -15 1 -11 12 2 20 11 20 23 0 20 -27 29 -52 19z"/>
<path d="M11791 4973 c-1 -13 -6 -23 -13 -23 -6 0 -9 -3 -5 -6 13 -13 34 11
26 31 -7 19 -8 19 -8 -2z"/>
<path d="M11834 4979 c-4 -8 1 -9 16 -4 15 5 20 3 16 -3 -3 -6 -3 -13 2 -16 4
-2 9 4 9 15 2 21 -31 27 -43 8z"/>
<path d="M12270 4965 c0 -14 5 -25 10 -25 6 0 10 11 10 25 0 14 -4 25 -10 25
-5 0 -10 -11 -10 -25z"/>
<path d="M12315 4979 c-17 -8 -16 -9 6 -4 18 3 26 0 26 -11 0 -8 -6 -13 -13
-10 -8 3 -11 0 -8 -9 9 -22 32 -7 32 21 0 25 -10 29 -43 13z"/>
<path d="M10034 4938 l-19 -23 23 19 c12 11 22 21 22 23 0 8 -8 2 -26 -19z"/>
<path d="M11724 4938 c10 -6 22 -6 26 -2 5 5 -3 10 -18 11 -22 1 -24 0 -8 -9z"/>
<path d="M7575 4920 c-3 -5 -1 -10 4 -10 6 0 11 5 11 10 0 6 -2 10 -4 10 -3 0
-8 -4 -11 -10z"/>
<path d="M6592 4885 c-22 -18 -51 -28 -108 -37 -44 -6 -82 -16 -86 -22 -14
-21 5 -36 49 -36 36 0 46 4 50 20 4 15 14 20 39 20 20 0 34 5 34 13 0 9 2 9 8
0 5 -8 13 -9 22 -3 13 8 12 10 -2 10 -10 0 -18 5 -18 10 0 6 6 10 13 10 7 0
18 9 25 20 16 26 10 25 -26 -5z"/>
<path d="M7945 4889 c-11 -16 -1 -19 13 -3 7 8 8 14 3 14 -5 0 -13 -5 -16 -11z"/>
<path d="M7907 4866 c-10 -8 -46 -17 -80 -20 -72 -8 -92 -18 -84 -40 5 -11 19
-16 52 -16 38 0 45 3 45 20 0 18 16 26 44 21 4 -1 15 6 23 16 8 10 12 13 9 6
-4 -6 -3 -14 2 -17 4 -2 9 6 10 20 2 28 3 28 -21 10z"/>
<path d="M10421 4861 c-18 -14 -35 -18 -58 -14 -22 4 -33 2 -33 -6 0 -7 -5 -9
-11 -6 -16 11 -59 -4 -59 -20 0 -23 22 -29 37 -10 7 11 13 15 13 10 0 -5 5 -4
11 2 6 6 17 9 24 7 7 -3 16 -1 19 5 4 6 12 8 19 6 7 -3 26 6 42 20 35 28 31
33 -4 6z"/>
<path d="M8548 4865 c-2 -3 -40 -11 -84 -18 -69 -12 -79 -16 -82 -35 -3 -20 1
-22 37 -20 23 1 41 5 41 10 0 5 5 6 10 3 6 -3 10 1 10 9 0 9 8 16 18 16 10 0
24 6 31 13 11 10 13 10 7 0 -10 -18 9 -16 23 1 11 13 1 32 -11 21z m-101 -51
c-3 -3 -12 -4 -19 -1 -8 3 -5 6 6 6 11 1 17 -2 13 -5z"/>
<path d="M9948 4832 c-33 -32 -35 -41 -9 -39 12 1 17 7 13 19 -4 16 7 23 30
19 4 0 5 6 2 14 -4 8 -7 15 -8 14 0 0 -13 -12 -28 -27z"/>
<path d="M9064 4821 c0 -23 4 -27 13 -19 7 6 10 15 7 20 -4 6 0 14 7 19 11 7
9 9 -7 9 -18 0 -21 -6 -20 -29z"/>
<path d="M13186 4841 c-19 -7 -19 -8 0 -13 13 -3 21 0 21 8 0 8 -1 14 -1 13
-1 0 -10 -4 -20 -8z"/>
<path d="M9465 4831 c-17 -4 -31 -14 -33 -24 -3 -16 3 -18 44 -15 40 3 48 6
50 26 4 24 -4 25 -61 13z"/>
<path d="M10712 4813 c2 -16 8 -28 13 -29 26 -2 43 -17 38 -32 -4 -13 -3 -14
5 -3 11 15 -16 73 -30 65 -4 -3 -5 2 -2 10 4 11 0 16 -11 16 -12 0 -16 -7 -13
-27z"/>
<path d="M11820 4830 c-42 -10 -31 -34 18 -38 39 -2 42 -1 42 22 0 26 -9 28
-60 16z m30 -20 c0 -5 -2 -10 -4 -10 -3 0 -8 5 -11 10 -3 6 -1 10 4 10 6 0 11
-4 11 -10z"/>
<path d="M12270 4815 c0 -24 9 -30 38 -26 6 1 12 -5 12 -14 0 -8 5 -15 10 -15
12 0 -3 34 -28 63 -21 24 -32 21 -32 -8z m28 -20 c-3 -3 -9 2 -12 12 -6 14 -5
15 5 6 7 -7 10 -15 7 -18z"/>
<path d="M13248 4833 c7 -3 16 -2 19 1 4 3 -2 6 -13 5 -11 0 -14 -3 -6 -6z"/>
<path d="M13128 4823 c6 -2 18 -2 25 0 6 3 1 5 -13 5 -14 0 -19 -2 -12 -5z"/>
<path d="M11390 4806 c0 -23 13 -25 33 -4 16 17 16 18 -8 18 -15 0 -25 -6 -25
-14z"/>
<path d="M10330 4799 c0 -5 5 -7 10 -4 6 3 10 8 10 11 0 2 -4 4 -10 4 -5 0
-10 -5 -10 -11z"/>
<path d="M6614 4736 c-7 -7 -25 -22 -40 -34 -16 -12 -24 -22 -17 -22 14 0 79
57 72 64 -2 2 -9 -2 -15 -8z"/>
<path d="M6872 4717 c2 -24 4 -26 14 -13 6 9 15 12 20 8 4 -4 3 0 -4 10 -10
13 -10 17 0 21 7 3 3 4 -9 4 -19 -1 -23 -6 -21 -30z"/>
<path d="M10780 4745 c0 -5 10 -21 21 -35 13 -17 17 -18 10 -5 -17 33 -31 51
-31 40z"/>
<path d="M12340 4741 c0 -6 4 -13 10 -16 6 -3 7 1 4 9 -7 18 -14 21 -14 7z"/>
<path d="M5870 4736 c0 -2 8 -10 18 -17 15 -13 16 -12 3 4 -13 16 -21 21 -21
13z"/>
<path d="M9701 4733 c0 -4 4 -17 9 -28 8 -19 9 -19 9 2 1 12 -3 25 -9 28 -5 3
-10 3 -9 -2z"/>
<path d="M10120 4736 c0 -3 9 -10 20 -16 11 -6 20 -8 20 -6 0 3 -9 10 -20 16
-11 6 -20 8 -20 6z"/>
<path d="M8257 4719 c7 -7 15 -10 18 -7 3 3 -2 9 -12 12 -14 6 -15 5 -6 -5z"/>
<path d="M7636 4705 c4 -8 10 -15 14 -15 5 0 16 -7 24 -16 9 -8 16 -11 16 -7
0 5 -13 19 -30 31 -20 15 -28 18 -24 7z"/>
<path d="M10429 4693 c-13 -16 -12 -17 4 -4 16 13 21 21 13 21 -2 0 -10 -8
-17 -17z"/>
<path d="M5910 4693 c8 -3 18 -11 22 -17 4 -6 39 -12 78 -13 38 -1 75 -5 82
-9 7 -5 9 -2 4 7 -4 8 0 5 8 -5 10 -12 16 -15 16 -7 0 8 8 11 20 8 13 -3 18
-1 13 5 -4 8 5 9 28 5 27 -5 30 -4 16 4 -10 6 -29 8 -42 5 -14 -4 -27 0 -35 9
-8 10 -17 12 -29 5 -26 -14 -140 -15 -153 -2 -7 7 -19 12 -27 11 -14 0 -14 -1
-1 -6z"/>
<path d="M8540 4690 c-8 -5 -12 -12 -9 -15 4 -3 12 1 19 10 14 17 11 19 -10 5z"/>
<path d="M9528 4689 c-24 -13 -23 -28 0 -22 10 2 19 11 19 19 0 8 -1 14 -1 14
-1 0 -9 -5 -18 -11z"/>
<path d="M11880 4683 c-13 -15 -12 -16 4 -10 10 4 20 7 22 7 2 0 4 5 4 10 0
15 -13 12 -30 -7z"/>
<path d="M6710 4668 c0 -9 16 -13 49 -13 27 0 47 3 45 7 -2 4 6 9 18 11 13 2
-7 5 -44 6 -49 1 -68 -3 -68 -11z"/>
<path d="M6938 4668 c13 -13 132 -11 147 3 5 5 -23 9 -75 9 -64 0 -81 -3 -72
-12z"/>
<path d="M7290 4670 c20 -13 150 -13 150 0 0 6 -34 10 -82 10 -57 0 -78 -3
-68 -10z"/>
<path d="M7706 4672 c-7 -11 177 -13 193 -2 6 3 -33 7 -88 9 -55 1 -102 -2
-105 -7z"/>
<path d="M8330 4670 c35 -11 191 -11 165 0 -11 5 -58 8 -105 8 -57 0 -77 -3
-60 -8z"/>
<path d="M8940 4670 c20 -13 100 -13 100 0 0 6 -26 10 -57 10 -41 0 -54 -3
-43 -10z"/>
<path d="M9050 4669 c0 -5 5 -7 10 -4 6 3 10 8 10 11 0 2 -4 4 -10 4 -5 0 -10
-5 -10 -11z"/>
<path d="M9387 4673 c-3 -5 6 -8 19 -8 13 0 24 3 24 8 0 4 -9 7 -19 7 -11 0
-22 -3 -24 -7z"/>
<path d="M9440 4671 c0 -6 5 -13 12 -17 6 -4 8 -3 4 4 -3 6 3 12 16 15 20 4
19 4 -4 6 -16 0 -28 -3 -28 -8z"/>
<path d="M9566 4672 c-5 -8 84 -4 93 4 2 2 -16 4 -42 4 -25 0 -48 -4 -51 -8z"/>
<path d="M9785 4669 c52 -10 204 -10 230 1 12 5 -36 8 -125 8 -103 0 -133 -3
-105 -9z"/>
<path d="M10263 4673 c20 -2 54 -2 75 0 20 2 3 4 -38 4 -41 0 -58 -2 -37 -4z"/>
<path d="M10638 4673 c12 -2 30 -2 40 0 9 3 -1 5 -23 4 -22 0 -30 -2 -17 -4z"/>
<path d="M10883 4673 c9 -2 23 -2 30 0 6 3 -1 5 -18 5 -16 0 -22 -2 -12 -5z"/>
<path d="M11293 4673 c9 -2 23 -2 30 0 6 3 -1 5 -18 5 -16 0 -22 -2 -12 -5z"/>
<path d="M7197 4149 c6 -6 9 -18 6 -25 -3 -8 0 -14 6 -14 6 0 11 11 11 25 0
17 -6 25 -17 25 -13 0 -14 -3 -6 -11z"/>
<path d="M7363 4153 c-8 -3 -13 -23 -13 -51 l0 -47 50 0 c44 0 50 3 50 21 0
11 -6 26 -12 33 -10 11 -10 13 0 7 15 -9 17 20 2 29 -14 9 -62 14 -77 8z m52
-53 c3 -5 -1 -10 -10 -10 -9 0 -13 5 -10 10 3 6 8 10 10 10 2 0 7 -4 10 -10z"/>
<path d="M7773 4153 c-7 -2 -13 -14 -13 -25 0 -18 5 -20 41 -15 47 6 54 11 46
32 -6 14 -47 19 -74 8z"/>
<path d="M8173 4153 c-19 -7 -16 -31 5 -37 9 -2 40 -8 69 -11 30 -4 70 -18 96
-35 27 -17 48 -25 54 -19 6 6 21 5 40 -1 23 -8 30 -16 28 -33 -3 -21 1 -23 44
-23 40 1 46 -2 49 -22 3 -19 9 -22 48 -22 31 0 46 5 51 15 8 22 5 24 -83 39
-70 12 -82 18 -114 52 -21 23 -47 40 -61 40 -85 5 -131 18 -138 37 -6 15 -18
21 -42 22 -19 1 -40 0 -46 -2z"/>
<path d="M9598 4131 c-4 -24 -1 -28 16 -24 19 4 19 3 3 -7 -11 -7 -85 -11
-217 -10 -173 0 -200 -2 -200 -15 0 -13 14 -15 93 -10 50 3 149 2 220 -2 l127
-8 0 52 c0 45 -3 53 -19 53 -13 0 -20 -9 -23 -29z"/>
<path d="M9780 4137 c0 -13 5 -28 12 -35 9 -9 8 -12 -6 -12 -11 0 -16 -6 -14
-17 2 -9 6 -16 11 -15 4 1 54 2 112 2 87 0 105 3 105 15 0 12 -17 15 -90 15
l-90 0 -1 28 c-1 15 -1 30 0 35 0 4 -8 7 -19 7 -14 0 -20 -7 -20 -23z"/>
<path d="M9980 4145 c0 -8 5 -15 10 -15 6 0 10 7 10 15 0 8 -4 15 -10 15 -5 0
-10 -7 -10 -15z"/>
<path d="M10221 4144 c0 -11 3 -14 6 -6 3 7 2 16 -1 19 -3 4 -6 -2 -5 -13z"/>
<path d="M10360 4145 c0 -8 2 -15 4 -15 2 0 6 7 10 15 3 8 1 15 -4 15 -6 0
-10 -7 -10 -15z"/>
<path d="M10481 4153 c0 -5 4 -17 9 -28 8 -18 9 -17 9 8 1 15 -3 27 -9 27 -5
0 -10 -3 -9 -7z"/>
<path d="M10689 4142 c0 -10 -3 -12 -6 -4 -2 6 -16 12 -29 12 -20 0 -24 -4
-21 -25 4 -32 17 -45 17 -17 0 12 5 22 11 22 5 0 8 -4 5 -8 -2 -4 -1 -14 4
-22 7 -11 14 -12 26 -4 22 13 28 50 9 58 -10 3 -15 -1 -16 -12z"/>
<path d="M11115 4153 c-32 -8 -39 -20 -11 -20 13 0 27 6 30 13 3 8 4 13 3 13
-1 -1 -11 -3 -22 -6z"/>
<path d="M11320 4145 c-8 -9 -8 -15 -2 -15 12 0 26 19 19 26 -2 2 -10 -2 -17
-11z"/>
<path d="M11372 4148 c5 -15 28 -23 28 -10 0 5 -7 13 -16 16 -10 4 -14 1 -12
-6z"/>
<path d="M11144 4139 c-3 -6 1 -18 11 -27 16 -16 17 -16 10 7 -5 18 -4 22 5
16 9 -5 11 -4 6 3 -9 15 -23 15 -32 1z"/>
<path d="M11346 4135 c-9 -26 -7 -32 5 -12 6 10 9 21 6 23 -2 3 -7 -2 -11 -11z"/>
<path d="M11763 4133 c-3 -10 -8 -21 -10 -25 -9 -17 23 4 35 22 10 17 10 20
-3 20 -9 0 -18 -8 -22 -17z"/>
<path d="M11813 4128 c-2 -22 -1 -22 13 -4 12 18 19 15 15 -6 0 -5 4 -8 10 -8
19 0 4 35 -16 38 -15 2 -21 -3 -22 -20z"/>
<path d="M8005 4120 c-19 -8 -19 -9 3 -9 12 -1 22 4 22 9 0 6 -1 10 -2 9 -2 0
-12 -4 -23 -9z"/>
<path d="M7581 4038 c-1 -53 3 -89 10 -94 8 -4 9 1 5 17 -6 21 -6 22 4 6 7
-10 9 -30 6 -45 -4 -18 -3 -22 3 -12 10 19 21 161 14 190 -3 11 -10 20 -15 20
-5 0 -6 -4 -3 -10 3 -5 2 -10 -4 -10 -5 0 -12 6 -14 13 -3 6 -6 -27 -6 -75z"/>
<path d="M11310 4089 c0 -30 1 -30 47 -27 64 4 71 28 8 28 -38 0 -46 3 -41 15
3 8 1 15 -4 15 -6 0 -10 -14 -10 -31z"/>
<path d="M11690 4100 c0 -6 -32 -10 -75 -10 -54 0 -75 -4 -75 -13 0 -18 126
-15 168 4 33 16 33 29 0 29 -10 0 -18 -4 -18 -10z"/>
<path d="M7972 4070 c-14 -18 -18 -31 -12 -35 6 -4 9 -1 8 7 -2 9 8 12 31 11
44 -2 64 -10 56 -23 -3 -5 -1 -10 5 -10 6 0 8 -5 4 -12 -5 -9 -2 -8 9 1 15 12
17 12 11 -3 -4 -9 -3 -16 2 -15 23 4 74 -2 73 -8 -4 -27 4 -33 46 -33 32 0 47
5 52 15 8 22 4 24 -63 35 -32 6 -69 13 -82 16 -26 5 -82 55 -82 73 0 21 -35
10 -58 -19z"/>
<path d="M10130 4075 c0 -18 5 -20 50 -17 33 3 50 8 50 17 0 9 -17 14 -50 17
-45 3 -50 1 -50 -17z"/>
<path d="M10428 4093 c-53 -3 -68 -7 -68 -19 0 -12 10 -15 43 -13 78 5 85 2
90 -33 3 -23 4 -16 5 20 1 28 1 51 0 50 -2 -1 -33 -3 -70 -5z"/>
<path d="M10850 4075 c0 -11 12 -15 50 -15 38 0 50 4 50 15 0 11 -12 15 -50
15 -38 0 -50 -4 -50 -15z"/>
<path d="M11080 4075 c0 -11 12 -15 50 -15 38 0 50 4 50 15 0 11 -12 15 -50
15 -38 0 -50 -4 -50 -15z"/>
<path d="M18750 4079 c0 -4 13 -10 29 -14 16 -3 40 -16 53 -28 13 -12 51 -42
84 -66 32 -25 75 -57 94 -73 80 -65 183 -138 188 -133 12 11 -14 37 -103 106
-53 41 -104 79 -113 84 -9 6 -19 12 -22 15 -18 20 -90 70 -99 70 -6 0 -11 7
-11 15 0 13 27 15 178 16 97 1 170 3 162 5 -33 7 -440 10 -440 3z"/>
<path d="M793 4073 c75 -2 199 -2 275 0 75 1 13 3 -138 3 -151 0 -213 -2 -137
-3z"/>
<path d="M1803 4073 c71 -2 183 -2 250 0 67 1 10 3 -128 3 -137 0 -192 -2
-122 -3z"/>
<path d="M18358 4073 c67 -2 177 -2 245 0 67 1 12 3 -123 3 -135 0 -190 -2
-122 -3z"/>
<path d="M7915 4021 c-3 -3 -38 -10 -78 -16 -61 -9 -72 -14 -72 -30 0 -16 8
-21 43 -23 37 -3 44 0 49 17 4 17 14 21 47 22 22 1 45 1 50 0 5 -1 4 4 -2 12
-7 8 -10 16 -7 19 3 2 -2 5 -10 5 -8 0 -17 -3 -20 -6z"/>
<path d="M10815 4001 c-3 -5 -2 -12 3 -15 5 -3 9 1 9 9 0 17 -3 19 -12 6z"/>
<path d="M9002 3989 c-47 -14 -35 -34 19 -34 38 0 44 3 47 23 4 25 -10 27 -66
11z"/>
<path d="M10630 3976 c0 -17 8 -27 29 -36 25 -10 28 -15 24 -46 -3 -19 0 -34
5 -34 6 0 8 10 5 23 -4 20 -2 19 22 -8 l27 -30 -19 35 c-11 19 -31 54 -43 78
-26 46 -50 55 -50 18z"/>
<path d="M11815 3989 c-4 -6 -13 -8 -20 -5 -8 3 -19 -2 -25 -9 -16 -19 5 -28
52 -23 25 2 34 8 36 26 3 16 -2 22 -17 22 -11 0 -23 -5 -26 -11z"/>
<path d="M7425 3968 l-20 -21 23 12 c12 6 22 16 22 21 0 13 -2 12 -25 -12z"/>
<path d="M7355 3970 c-8 -13 -1 -24 14 -19 6 3 7 10 2 18 -6 10 -10 10 -16 1z"/>
<path d="M10486 3965 c-3 -8 -1 -15 4 -15 6 0 10 7 10 15 0 8 -2 15 -4 15 -2
0 -6 -7 -10 -15z"/>
<path d="M7535 3884 l-50 -44 -145 0 c-90 -1 -137 -5 -125 -10 11 -5 72 -9
136 -9 l116 -1 49 37 c57 43 78 63 73 68 -2 1 -26 -17 -54 -41z"/>
<path d="M8025 3901 c19 -23 75 -66 75 -59 0 2 -21 21 -47 43 -27 21 -39 28
-28 16z"/>
<path d="M7631 3882 c8 -24 15 -30 22 -23 8 8 5 17 -11 34 l-23 22 12 -33z"/>
<path d="M8368 3889 c-16 -11 -28 -25 -28 -30 0 -5 9 0 20 11 12 12 24 19 29
16 4 -3 8 1 8 9 0 8 -1 15 -1 15 -1 0 -13 -10 -28 -21z"/>
<path d="M8437 3889 c7 -7 15 -10 18 -7 3 3 -2 9 -12 12 -14 6 -15 5 -6 -5z"/>
<path d="M10035 3870 c10 -11 20 -20 23 -20 3 0 -3 9 -13 20 -10 11 -20 20
-23 20 -3 0 3 -9 13 -20z"/>
<path d="M8735 3860 c-16 -17 -16 -20 -3 -15 9 4 19 13 22 21 7 19 2 18 -19
-6z"/>
<path d="M7919 3853 c-8 -9 -42 -13 -118 -13 -72 0 -101 -3 -91 -10 21 -14
153 -12 187 2 15 6 31 12 35 12 4 1 12 6 18 12 8 8 6 11 -5 11 -8 0 -20 -6
-26 -14z"/>
<path d="M8473 3857 c0 -8 6 -14 14 -14 9 0 10 4 2 14 -6 7 -12 13 -14 13 -1
0 -2 -6 -2 -13z"/>
<path d="M7666 3852 c-3 -5 1 -9 9 -9 8 0 12 4 9 9 -3 4 -7 8 -9 8 -2 0 -6 -4
-9 -8z"/>
<path d="M9070 3850 c-8 -5 -46 -10 -83 -10 -41 0 -66 -4 -62 -10 6 -10 261
-8 271 3 4 4 -18 7 -48 7 -31 0 -58 4 -60 10 -2 6 -8 6 -18 0z"/>
<path d="M10235 3851 c-6 -6 -39 -12 -75 -14 -36 -2 -6 -3 65 -3 72 0 106 1
77 3 -30 2 -50 8 -47 14 8 12 -8 12 -20 0z"/>
<path d="M11865 3850 c-3 -5 1 -10 10 -10 9 0 13 5 10 10 -3 6 -8 10 -10 10
-2 0 -7 -4 -10 -10z"/>
<path d="M8215 3840 c-70 -3 -104 -8 -93 -14 26 -12 185 -3 200 12 6 6 10 11
8 10 -3 -1 -54 -4 -115 -8z"/>
<path d="M8530 3830 c8 -5 44 -10 80 -10 36 0 72 5 80 10 10 7 -15 10 -80 10
-65 0 -90 -3 -80 -10z"/>
<path d="M9678 3827 c29 -7 52 -7 75 1 28 9 23 10 -43 10 -72 0 -73 -1 -32
-11z"/>
<path d="M10978 3833 c12 -2 32 -2 45 0 12 2 2 4 -23 4 -25 0 -35 -2 -22 -4z"/>
<path d="M11218 3833 c12 -2 32 -2 45 0 12 2 2 4 -23 4 -25 0 -35 -2 -22 -4z"/>
<path d="M11458 3833 c12 -2 32 -2 45 0 12 2 2 4 -23 4 -25 0 -35 -2 -22 -4z"/>
<path d="M11928 3833 c6 -2 18 -2 25 0 6 3 1 5 -13 5 -14 0 -19 -2 -12 -5z"/>
<path d="M18230 796 c0 -9 16 -33 35 -53 19 -20 35 -33 35 -29 0 4 -16 28 -35
53 -22 28 -35 39 -35 29z"/>
<path d="M1099 739 c-45 -54 -50 -73 -8 -29 47 47 63 70 52 70 -5 0 -25 -18
-44 -41z"/>
<path d="M5998 718 c-2 -21 -3 -38 -1 -38 10 0 19 39 13 55 -6 16 -8 12 -12
-17z"/>
<path d="M15820 734 c1 -14 29 -48 35 -42 3 2 -4 15 -15 28 -11 13 -20 19 -20
14z"/>
<path d="M3535 707 c-4 -10 -5 -21 -1 -24 10 -10 18 4 13 24 -4 17 -4 17 -12
0z"/>
<path d="M3506 645 c-3 -8 -1 -15 4 -15 6 0 10 7 10 15 0 8 -2 15 -4 15 -2 0
-6 -7 -10 -15z"/>
<path d="M15870 645 c0 -8 7 -15 16 -15 14 0 14 3 4 15 -7 8 -14 15 -16 15 -2
0 -4 -7 -4 -15z"/>
<path d="M10938 605 c2 -19 6 -35 8 -35 2 0 4 16 4 35 0 19 -4 35 -8 35 -4 0
-6 -16 -4 -35z"/>
<path d="M18387 600 c3 -11 9 -20 14 -20 11 0 11 3 3 24 -9 23 -23 20 -17 -4z"/>
<path d="M13431 574 c0 -11 3 -14 6 -6 3 7 2 16 -1 19 -3 4 -6 -2 -5 -13z"/>
<path d="M950 560 c-13 -8 -12 -10 3 -10 9 0 17 5 17 10 0 12 -1 12 -20 0z"/>
</g>
</svg>
